<svg width="61" height="60" viewBox="0 0 61 60" fill="none" xmlns="http://www.w3.org/2000/svg">
<path d="M60.2036 30.1819C60.2029 24.4135 58.554 18.766 55.4519 13.9081C52.3502 9.05026 47.9249 5.18536 42.7005 2.77107C37.4761 0.356743 31.6713 -0.505889 25.9732 0.285283C20.2751 1.07643 14.9224 3.48827 10.5488 7.23523C6.17514 10.9822 2.96374 15.9074 1.29477 21.4277C-0.374194 26.948 -0.430839 32.8322 1.13154 38.3838C2.69393 43.9353 5.80993 48.922 10.1106 52.7526C14.4113 56.5836 19.7166 59.0989 25.3984 60V38.908H17.755V30.1819H25.3984V23.5311C25.3984 15.9671 29.8936 11.7864 36.7669 11.7864C39.0249 11.8189 41.2775 12.0156 43.5072 12.375V19.8057H39.7093C38.5661 19.6535 37.4092 19.9628 36.4935 20.6657C35.5774 21.3685 34.9776 22.4073 34.8252 23.5537C34.7821 23.8747 34.7755 24.1996 34.8053 24.5222V30.1819H43.146L41.8114 38.908H34.7875V60C41.8716 58.8806 48.3244 55.2618 52.9839 49.7951C57.6436 44.3284 60.2039 37.3733 60.2036 30.1819Z" fill="#FDF6F5"/>
</svg>
