<svg width="533" height="579" viewBox="0 0 533 579" fill="none" xmlns="http://www.w3.org/2000/svg">
<path d="M425.764 0.512878C416.544 1.87878 407.723 6.37482 401.975 12.6921C396.625 18.4971 394.064 23.8469 392.869 31.3593L392.129 35.9692L389.909 31.1886C387.861 26.7495 387.69 26.0096 387.633 21.2858C387.633 16.676 387.804 15.7654 389.397 12.4075C390.422 10.3018 392.186 7.51306 393.381 6.2041C394.861 4.61053 395.202 3.9845 394.406 4.38287C392.243 5.52112 386.267 12.5214 384.674 15.8223C383.478 18.2695 383.023 20.0338 382.852 23.3916C382.682 27.3754 382.852 28.1722 384.389 31.53C385.356 33.522 388.145 38.3596 390.649 42.1727C395.999 50.4819 396.454 51.3355 396.454 52.8152C396.454 53.8397 394.576 55.7178 393.552 55.7178C393.324 55.7178 391.048 53.7828 388.43 51.3925C380.462 44.2215 373.519 40.2376 364.014 37.392C356.445 35.1155 342.615 35.5139 334.761 38.2457L332.656 38.9855L337.209 42.5141C345.404 49.0021 354.225 59.3032 360.201 69.3198C364.584 76.6615 368.681 85.1983 368.795 87.1903C368.852 89.296 370.901 88.4992 351.038 94.0767C343.697 96.1255 337.266 97.8329 336.696 97.8329C335.957 97.8329 334.591 95.8409 331.802 90.5481C324.574 76.8891 317.745 67.3848 309.777 59.9293C304.427 54.921 300.386 52.303 295.549 50.5956C291.85 49.2867 287.24 49.116 285.02 50.1973C284.166 50.6526 281.947 51.2786 280.069 51.677C263.393 55.0917 252.979 61.2383 246.491 71.3687C244.783 73.9866 243.873 74.7265 240.116 76.6615C234.027 79.6779 231.636 81.2714 227.823 84.743C224.01 88.2716 220.368 93.166 217.75 98.402C214.221 105.402 213.197 106.54 209.441 107.394C201.416 109.272 192.082 114.394 186.22 120.313C176.375 130.159 170.854 142.566 169.716 157.591L169.374 161.859L170.228 158.217C173.131 145.582 180.472 133.175 190.716 123.557C194.814 119.801 202.213 114.679 205.514 113.427C206.083 113.199 203.066 116.443 198.855 120.655C189.806 129.647 184.627 136.419 180.757 144.216C177.285 151.273 176.204 155.144 175.805 162.428C175.578 166.811 175.749 168.973 176.488 171.819C177.285 174.608 177.456 177.396 177.399 183.486C177.001 214.503 189.749 241.081 209.953 251.496C215.587 254.399 217.238 254.455 212.855 251.61C203.01 245.179 195.782 235.333 191.57 222.471C189.123 215.015 188.099 208.869 187.814 199.99L187.586 192.023L188.611 194.868C189.237 196.405 190.375 199.023 191.229 200.673C192.025 202.324 193.448 206.592 194.359 210.121C197.831 223.609 202.896 232.658 211.717 241.138C215.872 245.122 217.921 245.919 214.506 242.219C208.53 235.731 201.53 219.568 199.822 208.243L199.424 205.682L201.985 209.153C205.741 214.218 210.75 218.089 218.66 221.902C225.092 225.032 225.661 225.43 226.799 227.764C228.449 231.178 228.336 231.918 225.945 232.715C222.815 233.739 217.75 233.17 214.335 231.406L211.376 229.869L213.197 232.146C216.327 236.073 220.88 238.634 225.888 239.26L229.132 239.658V242.959C229.132 248.537 225.49 257.813 218.034 271.131C215.36 275.854 214.904 277.163 215.132 278.928C215.644 283.424 220.482 286.952 227.482 287.92C234.027 288.831 234.71 289.058 236.531 290.879C238.637 292.928 238.694 294.692 236.815 297.936C235.791 299.701 235.45 300.839 235.734 301.92C236.246 303.855 239.946 306.53 243.759 307.612C245.409 308.067 246.775 308.807 246.775 309.205C246.775 309.66 246.377 311.026 245.921 312.335C244.214 317.23 247.344 320.872 254.06 321.783C259.41 322.523 261.971 325.71 263.621 333.848C265.841 344.832 271.646 349.442 282.175 348.645C290.825 347.962 305.793 341.588 324.176 330.661C333.566 325.141 335.046 324.685 338.176 326.563C341.42 328.555 348.648 339.198 354.225 350.296C359.291 360.369 361.738 367.199 361.738 371.41C361.738 373.402 362.307 373.118 353.656 375.28C350.526 376.077 349.445 376.646 347.794 378.524C343.298 383.476 338.688 392.183 330.55 411.135C323.493 427.526 319.566 435.892 308.639 458.088C297.882 479.942 294.581 487.454 292.362 495.081C291.508 498.04 290.825 500.544 290.882 500.658C290.939 500.715 293.785 498.951 297.199 496.731C307.728 489.845 322.696 473.909 333.965 457.519C345.176 441.242 356.502 417.851 363.445 396.565C371.925 370.557 377.787 332.824 378.641 298.961C378.982 285.416 378.982 285.188 377.787 284.847C375.795 284.221 374.657 280.863 374.942 276.537L375.226 272.781L369.763 272.098C352.632 270.049 336.64 258.667 328.729 242.959C321.046 227.65 320.59 210.747 327.534 195.95C330.436 189.86 332.599 186.673 337.493 181.551C342.16 176.713 346.201 173.811 352.689 170.681C355.25 169.429 357.469 168.347 357.583 168.176C357.697 168.063 356.787 162.997 355.478 156.965C354.225 150.932 353.201 145.355 353.315 144.558C353.429 143.647 354.055 142.85 354.908 142.395C357.185 141.371 378.186 136.533 380.519 136.533C382.511 136.533 382.739 136.704 383.592 138.81C384.503 141.143 389.397 160.152 389.739 162.713C389.909 163.908 390.422 164.25 393.495 165.103C409.373 169.372 420.813 178.25 427.756 191.738C431.854 199.82 432.935 204.031 433.277 214.275C433.618 224.121 432.821 229.528 429.919 236.983C426.618 245.463 422.748 251.325 416.317 257.529C409.146 264.472 401.007 268.911 391.389 271.245C388.145 272.041 387.405 272.383 387.69 273.123C387.861 273.578 388.202 275.854 388.316 278.074C388.6 282.058 388.6 282.229 386.95 283.765L385.243 285.359L384.56 302.717C383.478 330.604 380.747 352.686 375.34 376.134C365.38 419.672 344.55 459.567 317.176 487.511L313.192 491.609L317.688 489.731C324.574 486.828 332.656 482.901 336.07 480.909C339.713 478.747 340.453 478.918 337.436 481.251C332.485 485.121 322.582 490.983 311.086 496.788C289.801 507.544 278.874 516.081 269.369 529.342C261.345 540.554 254.06 560.7 252.694 575.27L252.296 579.311H377.787H503.336L506.295 571.457C518.645 539.188 526.897 508.853 530.597 482.56C531.849 473.454 532.019 446.307 530.881 438.453C528.206 420.867 523.426 407.72 516.539 399.07C515.003 397.135 512.84 394.915 511.759 394.061L509.767 392.525L507.832 394.004C504.645 396.452 494.344 401.005 488.482 402.598C480.343 404.761 471.863 406.127 460.025 407.151C440.561 408.859 432.764 410.566 423.317 415.346C416.26 418.932 406.414 427.526 402.316 433.672C400.552 436.347 400.097 436.575 401.349 434.014C405.617 425.591 416.146 415.802 426.618 410.566C436.748 405.501 444.204 403.509 464.18 400.606C484.953 397.59 493.49 395.484 501.97 391.102C506.693 388.655 506.58 388.768 506.181 388.37C506.011 388.199 502.482 386.663 498.384 385.012C485.408 379.662 480.4 376.419 472.432 368.109C464.749 360.085 456.895 349.158 448.586 335.043C443.122 325.653 440.163 319.905 440.391 319.165C440.846 317.856 449.326 322.921 455.586 328.271L458.603 330.889L458.318 336.295L458.09 341.702L459.115 338.287C459.684 336.409 460.196 334.531 460.196 334.133C460.253 330.718 467.083 341.759 469.53 349.158C470.042 350.751 470.725 353.141 471.009 354.564C471.465 356.613 471.522 356.158 471.294 351.946C471.18 349.101 470.611 345.401 470.099 343.694C468.847 339.369 464.977 332.084 462.359 329.067C460.993 327.474 460.196 325.994 460.196 324.97C460.196 322.067 458.489 316.661 455.928 311.538C453.253 306.075 450.066 301.636 444.033 294.806C441.927 292.473 440.391 290.481 440.504 290.367C440.789 290.083 449.61 293.896 452.399 295.489C461.847 301.124 469.985 312.221 472.489 322.921C473.4 326.905 473.4 336.182 472.432 338.856C472.148 339.767 472.148 339.824 472.66 339.084C473.001 338.572 473.798 336.182 474.538 333.677C476.245 327.474 476.245 317.002 474.538 310.4C472.603 303.286 469.359 297.197 464.692 292.245C459.741 286.952 455.245 283.879 443.35 277.79C438.342 275.172 432.935 272.041 431.399 270.789L428.667 268.456L431.228 268.854C434.415 269.31 440.049 268.342 444.033 266.578C450.749 263.618 457.464 256.732 466.115 243.927C474.652 231.292 478.408 220.251 478.408 207.73C478.408 199.877 476.018 185.762 472.205 171.136C471.294 167.778 470.668 164.989 470.782 164.989C471.18 164.989 477.782 174.095 480.115 177.908C481.538 180.128 482.733 181.892 482.847 181.835C483.189 181.494 479.091 172.445 471.294 156.453C464.351 142.168 458.716 129.248 459.229 128.736C459.627 128.395 475.221 144.33 478.465 148.371C488.197 160.55 493.205 173.128 493.205 185.421C493.205 193.047 492.124 199.251 488.937 209.836C487.571 214.446 486.148 220.365 485.807 222.926C485.465 225.544 484.953 228.39 484.612 229.186C484.156 230.666 484.156 230.666 485.01 229.585C486.774 227.308 493.433 215.755 496.051 210.519C501.856 198.966 503.791 190.202 503.279 177.795C502.767 165.103 499.978 156.054 492.921 143.932C491.441 141.371 491.441 141.371 495.026 145.127C501.742 151.956 505.441 158.331 507.775 166.981C509.255 172.331 509.539 186.844 508.287 192.819C505.84 204.771 500.262 217.747 493.661 226.739C492.352 228.503 492.636 228.333 494.913 225.885C503.051 217.235 508.344 205.511 512.271 187.584C513.011 184.169 513.751 181.266 513.921 181.039C514.775 180.242 520.466 189.063 522.174 193.673C524.109 199.137 524.166 207.048 522.287 213.592C520.068 221.503 514.946 230.495 509.368 236.244C507.946 237.723 506.921 238.975 507.206 238.975C507.49 238.975 509.937 237.325 512.669 235.276C522.857 227.764 529.345 216.21 530.028 204.543C530.597 194.811 527.523 187.014 519.897 178.99L515.572 174.38L515.23 167.266C514.832 157.648 512.954 151.729 508.059 144.558L506.352 141.997L510.279 141.029C519.783 138.582 526.101 133.289 530.995 123.614C531.792 121.964 532.475 120.37 532.475 119.972C532.475 119.63 531.052 120.655 529.288 122.248C525.531 125.72 522.344 127.655 517.962 129.192C510.62 131.753 501.344 131.582 492.864 128.622C487.855 126.915 477.27 120.882 473.912 117.866L471.863 116.045L474.766 117.695C477.156 119.004 489.108 123.443 490.303 123.443C490.473 123.443 488.311 122.077 485.465 120.37C479.831 117.069 471.465 111.435 471.806 111.093C471.863 110.98 473.115 111.321 474.481 111.833C478.465 113.256 485.75 113.028 491.213 111.264C503.734 107.28 512.385 98.402 518.133 83.6048C521.035 76.1493 523.426 61.0106 522.572 55.6609C522.344 54.4088 522.458 53.4413 522.743 53.4413C523.027 53.4413 523.881 55.8885 524.564 58.9048C525.645 63.5717 525.759 65.3929 525.475 71.8239C525.076 81.1576 523.767 86.3366 519.84 94.3612C518.19 97.6621 516.767 100.622 516.653 100.963C516.539 101.248 517.678 99.8817 519.157 97.8329C525.475 89.3529 528.434 80.1901 528.889 67.9539C529.743 44.7337 521.491 29.1967 504.929 22.9932C497.018 20.0338 482.506 19.1232 473.286 21.0582C463.44 23.0501 450.919 28.343 444.887 32.9529C442.212 35.0017 441.984 35.1155 443.009 33.6927C449.041 25.3266 462.586 18.2126 476.871 15.8792C481.994 15.0824 492.921 15.1962 496.905 16.1068C498.783 16.5621 500.376 16.8467 500.49 16.7898C500.718 16.5052 492.636 13.2043 489.335 12.2368C483.587 10.5294 475.164 9.90338 468.221 10.7001C452.172 12.4075 440.903 18.4402 431.626 30.2211C429.691 32.6683 428.041 34.5464 427.927 34.4326C427.472 34.0342 431.171 25.1559 432.935 22.4241C439.139 12.6352 451.489 6.03333 463.839 5.97644L468.847 5.91956L465.717 4.95203C461.562 3.69995 435.61 -0.0562744 431.683 0.000671387C429.976 0.0575562 427.301 0.285217 425.764 0.512878ZM500.035 32.0992C504.588 34.4326 509.198 39.9531 511.474 45.7581C512.669 48.8314 512.783 50.0834 512.783 58.5634C512.84 66.645 512.612 68.6369 511.531 72.7915C507.433 87.7594 500.319 97.9467 490.36 103.183C483.075 107.053 474.083 107.906 466.741 105.459C462.53 104.036 462.53 103.638 466.855 104.264C474.367 105.231 485.01 102.898 491.156 98.8004C500.832 92.3693 504.702 83.7186 504.815 68.2385C504.872 59.3032 504.132 54.1242 501.913 46.8964C500.433 42.1727 496.677 34.2618 494.856 31.8715C494.23 31.1317 493.774 30.3349 493.774 30.0504C493.774 29.5381 497.246 30.6764 500.035 32.0992ZM360.315 39.327C366.234 40.4653 372.153 42.7987 376.307 45.5874C378.641 47.1809 380.462 48.5468 380.348 48.6606C380.234 48.7745 378.47 47.9777 376.478 46.8964C368.624 42.7418 362.136 40.7498 349.786 38.6441C347.168 38.1888 347.567 38.1888 352.063 38.4164C355.022 38.5872 358.778 38.9855 360.315 39.327ZM372.779 98.402C374.543 99.028 375.169 100.508 377.844 110.069C380.462 119.175 382.283 127.826 381.828 128.907C381.373 130.216 378.015 131.696 371.242 133.631C365.266 135.281 354.169 137.671 352.12 137.671C350.071 137.671 349.103 135.964 344.892 124.866C338.062 106.996 338.176 107.679 341.819 105.801C344.209 104.605 354.681 101.532 364.014 99.3126C371.072 97.6621 370.958 97.6621 372.779 98.402ZM352.86 164.932C353.03 165.217 352.518 165.615 351.608 165.843C347.908 166.754 341.762 170.396 333.566 176.486C332.087 177.624 332.2 177.396 334.249 174.892C337.266 171.25 341.705 167.778 345.802 165.9C348.933 164.42 352.29 163.965 352.86 164.932ZM468.278 207.844C466.456 213.365 461.221 220.65 456.497 224.178C455.415 224.975 455.415 224.975 456.212 223.837C456.668 223.211 458.773 220.365 460.879 217.633C462.928 214.845 465.66 210.576 466.855 208.129C469.245 203.121 469.871 203.007 468.278 207.844ZM435.269 292.359C443.009 299.132 447.732 304.254 451.318 309.831C453.936 313.872 457.237 321.783 456.611 322.466C456.383 322.636 454.733 321.783 452.968 320.531C448.757 317.571 444.716 315.579 440.789 314.441L437.602 313.53L431.854 301.693C426.333 290.31 423.203 283.253 423.203 282.001C423.203 281.66 424.398 282.57 425.935 283.993C427.415 285.416 431.626 289.172 435.269 292.359ZM477.099 379.89C476.928 380.061 473.741 380.858 470.042 381.598C456.611 384.329 448.415 387.061 438.399 392.297C425.992 398.671 415.179 407.777 395.032 428.835C375.454 449.266 365.722 458.771 354.908 467.763C351.095 470.95 351.38 470.495 358.152 462.527C361.112 458.998 367.315 451.6 371.868 446.136C382.966 432.875 389.682 425.079 394.235 420.241C396.284 418.078 399.243 414.891 400.78 413.184C405.39 408.119 418.024 397.305 423.886 393.435C434.301 386.549 445.228 382.11 455.928 380.459C460.993 379.662 477.782 379.207 477.099 379.89Z" fill="url(#paint0_linear_5_10171)"/>
<path d="M391.674 176.315C391.901 177.453 392.186 178.535 392.414 178.705C392.584 178.933 394.462 179.616 396.511 180.299C412.219 185.421 423.203 200.901 423.203 217.918C423.203 233.683 413.414 249.106 399.015 256.049C392.414 259.179 387.69 260.261 380.234 260.204C372.494 260.204 367.657 259.122 360.884 255.821C338.518 244.951 331.517 215.584 346.372 195.438C349.331 191.397 354.965 186.445 358.721 184.51L361.795 182.917L361.453 180.64C361.283 179.445 360.998 178.307 360.941 178.193C360.543 177.852 356.388 180.185 352.86 182.803C342.729 190.259 336.81 199.763 334.648 211.942C332.599 223.552 335.103 234.707 342.103 245.236C354.681 264.188 380.974 270.106 402.715 258.838C418.309 250.756 428.553 232.886 427.585 215.641C426.902 204.031 422.691 194.641 414.666 186.616C408.235 180.185 401.804 176.6 393.552 174.721L391.275 174.209L391.674 176.315Z" fill="url(#paint1_linear_5_10171)"/>
<path d="M479.717 239.146C476.871 244.894 474.823 247.171 469.188 250.984C466.286 252.976 461.391 257.073 458.318 260.147C455.245 263.22 451.887 266.35 450.919 267.147C449.838 268.001 449.44 268.57 449.952 268.57C451.147 268.57 461.05 273.635 465.034 276.31C477.725 284.733 484.782 297.424 484.896 312.051L484.953 317.685L485.636 314.612C488.083 303.628 486.547 292.188 481.424 283.367C476.815 275.57 469.302 269.651 459.912 266.464L455.529 265.041L457.464 263.049C458.489 261.968 462.245 259.179 465.717 256.789C472.831 252.065 475.961 248.878 478.522 243.87C480.343 240.284 481.937 236.073 481.652 235.788C481.538 235.674 480.685 237.211 479.717 239.146Z" fill="url(#paint2_linear_5_10171)"/>
<path d="M79.6237 256.732C78.9408 257.073 73.1926 263.505 66.8184 271.017C60.4443 278.529 54.6961 285.359 54.0132 286.156L52.7611 287.635L50.883 285.359C49.8586 284.107 46.9561 280.806 44.4519 277.96C41.9478 275.115 38.8745 271.586 37.6793 270.106C35.1752 267.033 32.6711 265.496 31.0775 266.009C29.9393 266.35 29.1425 268.399 28.5165 272.497L28.1181 275.001L24.1342 270.619C21.9716 268.228 19.8089 266.293 19.3536 266.293C18.1584 266.293 17.4186 268.74 17.4186 272.554C17.4186 277.448 17.0771 278.017 15.3128 275.911C13.4347 273.749 10.02 271.984 7.57275 271.984H5.63773L5.29626 280.635C5.06861 285.359 4.89787 295.774 4.89787 303.798C4.89787 311.823 4.61331 326.165 4.27183 335.726C3.6458 352.914 3.6458 353.084 2.2799 354.564C-0.622622 357.637 -0.793359 362.646 1.99534 366.06C2.84903 367.142 9.56468 374.54 16.9064 382.451C54.4685 423.03 65.794 435.266 71.5991 441.64L75.9813 446.478L74.8431 450.177C73.3633 454.957 73.2495 460.535 74.6154 463.38C75.5829 465.486 78.77 468.559 85.1442 473.625C87.8191 475.674 88.8435 477.153 92.1444 483.357C96.1852 490.869 96.4697 491.95 95.673 497.186C95.0469 501.512 95.6161 502.935 99.4861 506.577L102.958 509.764L101.99 513.52C99.8845 522 100.454 522.968 113.316 531.903C126.064 540.724 132.211 543.513 147.634 547.212C157.309 549.546 160.382 550.968 163.854 554.839C166.756 558.026 168.691 562.579 171.765 573.05L173.643 579.311H200.505H227.311L224.238 570.489C219.173 555.806 210.807 525.187 208.359 512.439C206.652 503.219 205.628 499.406 203.749 495.138C203.01 493.487 202.383 491.894 202.383 491.723C202.383 491.495 205.684 489.788 209.782 487.91C213.823 486.088 217.181 484.438 217.181 484.267C217.181 483.812 165.22 423.143 146.325 401.46C138.983 393.037 97.4372 345.572 83.323 329.409C79.3391 324.856 75.3553 320.815 74.5016 320.417C72.4528 319.449 75.526 317.856 24.8172 346.995C19.6382 349.954 14.3453 352.971 13.0363 353.711L10.646 355.076L10.9306 352.402C11.7843 343.068 13.89 304.083 14.0607 293.327V289.912L15.0852 292.188L16.1096 294.465L16.7356 291.335C17.0771 289.627 17.4755 287.18 17.7031 285.928C18.3292 281.66 18.6706 280.521 19.1259 280.806C19.3536 280.977 20.4918 282.741 21.5732 284.733L23.5651 288.375L21.9146 297.936C19.2967 313.246 15.1421 339.369 15.1421 340.45C15.199 341.247 19.069 331.401 22.8252 321.1C25.2156 314.384 28.6872 302.262 32.045 288.546L33.6955 282.115L40.1266 288.944L46.5577 295.831L41.4925 303.115C36.0289 310.969 25.4432 327.36 22.8252 332.027C21.9146 333.564 20.1504 336.637 18.8414 338.856C16.1096 343.409 13.6054 348.247 14.4022 347.393C14.7437 347.052 17.4755 343.466 20.6057 339.426C23.6789 335.328 27.492 330.49 29.0856 328.612C30.6222 326.677 33.4678 323.262 35.3459 320.986C51.7367 300.953 80.7619 267.431 81.7295 267.431C81.9571 267.431 84.0629 269.537 86.3963 272.098C94.2502 280.92 117.869 307.555 123.845 314.384C127.089 318.14 132.097 323.775 134.942 326.905C137.731 330.092 145.813 339.141 152.87 347.109C159.927 355.076 170.57 366.971 176.488 373.573C182.464 380.175 188.838 387.346 190.716 389.508C192.595 391.671 200.562 400.663 208.359 409.428C232.718 436.632 231.124 434.697 229.701 435.721C228.62 436.461 228.336 436.461 227.709 435.835C227.311 435.38 224.067 431.794 220.539 427.867C212.912 419.444 198.115 403.452 180.188 384.386C152.415 354.735 145.983 347.621 108.251 304.994C97.8925 293.27 88.3313 282.513 87.0792 281.147L84.6889 278.586L79.9652 282.912C73.7048 288.546 29.1994 333.222 27.6059 335.442L26.2969 337.149L28.0043 335.669C28.9149 334.873 32.2158 331.913 35.3459 329.124C48.7772 317.002 75.3553 295.205 76.3797 295.432C76.7212 295.546 82.2417 301.465 88.5589 308.693C99.7137 321.271 106.828 329.124 119.007 341.987C124.186 347.45 139.211 363.841 143.536 368.735C144.504 369.817 147.975 373.687 151.219 377.272C170.057 398.045 180.415 410.452 191.912 425.932C199.538 436.233 223.043 469.698 228.62 478.121C228.848 478.462 230.157 478.064 231.636 477.324L234.368 475.958L231.693 472.543C230.271 470.722 225.547 464.462 221.278 458.714C188.269 414.436 186.05 411.59 176.432 400.891C164.252 387.289 157.935 380.516 142.626 364.467C125.04 346.084 94.1363 312.335 83.0384 299.359C78.2578 293.725 78.0871 293.27 80.6481 291.904C81.4449 291.448 82.9815 292.985 89.7541 300.896C105.063 318.709 135.625 351.832 162.545 379.833C184.399 402.541 239.376 461.73 239.376 462.584C239.376 462.811 238.352 463.494 237.1 464.063C234.311 465.315 234.027 465.714 234.824 467.194C235.393 468.275 235.62 468.218 241.084 465.486C246.434 462.811 247.913 461.502 247.913 459.567C247.913 458.6 242.962 452.681 236.417 445.795C233.97 443.234 231.978 440.957 231.978 440.672C232.035 440.388 233.685 439.136 235.734 437.884C237.783 436.632 239.718 435.152 240.003 434.583C240.742 433.274 239.661 431.794 231.124 422.29C227.368 418.135 222.872 413.127 221.165 411.192C219.457 409.2 209.953 398.671 200.107 387.744C183.773 369.589 156.057 338.515 148.317 329.75C144.504 325.368 138.3 318.482 131.585 310.912C122.934 301.294 104.665 280.692 94.364 268.968C82.4693 255.48 82.3555 255.423 79.6237 256.732Z" fill="url(#paint3_linear_5_10171)"/>
<path d="M114.852 345.686C130.105 364.752 136.536 372.606 150.593 389.793C175.066 419.615 184.741 431.965 205.058 458.941C208.815 463.95 213.481 469.982 215.416 472.316C218.376 475.901 218.774 476.698 218.034 477.21C217.294 477.779 217.351 478.064 218.433 479.487C219.116 480.397 219.742 481.194 219.799 481.308C220.026 481.649 223.441 479.714 223.441 479.202C223.441 478.462 217.067 469.47 201.871 448.811C183.318 423.542 164.366 400.777 121.056 351.719C108.99 338.003 107.511 336.58 114.852 345.686Z" fill="url(#paint4_linear_5_10171)"/>
<path d="M332.997 382.85C322.468 388.484 314.33 396.338 308.411 406.582C303.573 415.005 301.638 421.664 298.907 439.022C295.663 459.681 293.386 467.99 288.833 476.129C286.727 479.885 284.223 482.674 272.67 494.227C257.93 508.967 253.263 514.772 248.824 523.821C243.474 534.635 240.515 547.383 240.515 559.676C240.515 564.286 241.71 573.335 242.791 577.148L243.417 579.311H247.23H251.043L251.1 571.741C251.271 555.806 256.905 538.732 266.41 525.529C270.166 520.293 278.361 511.414 282.174 508.398C284.053 506.918 284.337 506.292 284.849 502.935C286.557 492.406 291.394 479.999 304.086 453.819C314.501 432.363 316.151 428.778 324.176 410.281C328.501 400.322 334.591 387.118 337.721 381.085C338.119 380.289 336.981 380.744 332.997 382.85Z" fill="url(#paint5_linear_5_10171)"/>
<defs>
<linearGradient id="paint0_linear_5_10171" x1="461.914" y1="510.5" x2="363.527" y2="237.913" gradientUnits="userSpaceOnUse">
<stop stop-color="#260273"/>
<stop offset="1" stop-color="#FF4A80"/>
</linearGradient>
<linearGradient id="paint1_linear_5_10171" x1="409.441" y1="253.806" x2="399.44" y2="207.949" gradientUnits="userSpaceOnUse">
<stop stop-color="#260273"/>
<stop offset="1" stop-color="#FF4A80"/>
</linearGradient>
<linearGradient id="paint2_linear_5_10171" x1="479.576" y1="307.957" x2="462.149" y2="273.114" gradientUnits="userSpaceOnUse">
<stop stop-color="#260273"/>
<stop offset="1" stop-color="#FF4A80"/>
</linearGradient>
<linearGradient id="paint3_linear_5_10171" x1="199.737" y1="540.931" x2="153.12" y2="382.83" gradientUnits="userSpaceOnUse">
<stop stop-color="#260273"/>
<stop offset="1" stop-color="#FF4A80"/>
</linearGradient>
<linearGradient id="paint4_linear_5_10171" x1="201.472" y1="464.549" x2="181.762" y2="394.908" gradientUnits="userSpaceOnUse">
<stop stop-color="#260273"/>
<stop offset="1" stop-color="#FF4A80"/>
</linearGradient>
<linearGradient id="paint5_linear_5_10171" x1="318.891" y1="555.722" x2="278.688" y2="468.67" gradientUnits="userSpaceOnUse">
<stop stop-color="#260273"/>
<stop offset="1" stop-color="#FF4A80"/>
</linearGradient>
</defs>
</svg>
