<svg width="60" height="60" viewBox="0 0 60 60" fill="none" xmlns="http://www.w3.org/2000/svg">
<path fill-rule="evenodd" clip-rule="evenodd" d="M17.6019 0.166667C20.7962 0 21.8277 0 29.9465 0C38.0654 0 39.0969 0 42.3245 0.166667C44.8037 0.220312 47.2564 0.693647 49.5782 1.56667C53.5851 3.1551 56.7381 6.36213 58.2627 10.4C59.1342 12.726 59.6067 15.1829 59.6602 17.6667C59.8266 20.8666 59.8266 21.9 59.8266 30.0328V30.0334C59.8266 34.989 59.7648 37.2596 59.7166 39.031L59.7165 39.0315L59.7165 39.0343C59.6855 40.1688 59.6602 41.0989 59.6602 42.4001C59.6067 44.8838 59.1342 47.3408 58.2627 49.6668C56.7075 53.6927 53.5305 56.8755 49.5117 58.4334C47.1898 59.3066 44.7372 59.78 42.2579 59.8336C39.0636 60 38.0322 60 29.9142 60C24.9642 60 22.6973 59.9383 20.9285 59.89C19.7961 59.859 18.8674 59.8336 17.5686 59.8336C15.0892 59.78 12.6368 59.3066 10.3149 58.4334C6.28938 56.8682 3.11116 53.6721 1.56387 49.6335C0.692418 47.3075 0.21992 44.8505 0.16637 42.3668C0 39.1666 0 38.1335 0 30.0001C0 21.8667 0 20.8334 0.16637 17.6C0.21992 15.1162 0.692418 12.6593 1.56387 10.3333C3.12645 6.30062 6.31673 3.11673 10.3482 1.56667C12.67 0.693647 15.1225 0.220312 17.6019 0.166667ZM42.0603 5.57109C38.8993 5.40443 37.9343 5.40443 29.9487 5.40443H29.9486V5.47111C25.0225 5.47111 22.7709 5.53398 21.0341 5.58252L21.0313 5.5826L21.0313 5.5826C19.9421 5.613 19.055 5.63776 17.8369 5.63776C15.9394 5.6622 14.06 6.01168 12.2802 6.67111C9.70775 7.68753 7.67151 9.72742 6.65686 12.3044C5.99863 14.0875 5.64979 15.9702 5.62536 17.8711C5.45899 21.0378 5.45899 21.9711 5.45899 30.0045C5.45899 34.9394 5.52178 37.195 5.57023 38.9349C5.60064 40.0274 5.62536 40.9166 5.62536 42.1377C5.64979 44.0387 5.99863 45.9213 6.65686 47.7045C7.67151 50.2816 9.70775 52.3212 12.2802 53.3377C14.06 53.9971 15.9394 54.3468 17.8369 54.3712C20.9979 54.5379 21.9296 54.5379 29.9486 54.5379C34.8629 54.5379 37.1156 54.4752 38.8504 54.4269H38.8505L38.863 54.4265C39.9537 54.3959 40.8411 54.3712 42.0603 54.3712C43.9579 54.3468 45.8372 53.9971 47.6171 53.3377C50.1895 52.3212 52.2258 50.2816 53.2404 47.7045C53.8985 45.9213 54.2476 44.0387 54.2718 42.1377C54.4382 38.9713 54.4382 38.0378 54.4382 30.0045C54.4382 25.0823 54.3756 22.8256 54.3275 21.0875L54.3274 21.0871L54.3271 21.074C54.2965 19.9816 54.2718 19.0925 54.2718 17.8711C54.2476 15.9702 53.8985 14.0875 53.2404 12.3044C52.2258 9.72742 50.1895 7.68753 47.6171 6.67111C45.8412 5.98895 43.9616 5.61686 42.0603 5.57109ZM14.5704 29.9985C14.5704 21.4933 21.4529 14.5985 29.9429 14.5985C34.02 14.5985 37.93 16.221 40.8129 19.1091C43.6957 21.9971 45.3155 25.9142 45.3155 29.9985C45.3155 38.5036 38.4331 45.3986 29.9429 45.3986C21.4529 45.3986 14.5704 38.5036 14.5704 29.9985ZM19.9644 30.0011C19.9644 35.5248 24.4336 40.0024 29.9466 40.0024C32.594 40.0024 35.133 38.949 37.005 37.073C38.877 35.1974 39.9288 32.6537 39.9288 30.0011C39.9288 24.4775 35.4597 19.9996 29.9466 19.9996C24.4336 19.9996 19.9644 24.4775 19.9644 30.0011ZM49.5077 14.0057C49.5077 15.9942 47.8985 17.6062 45.9141 17.6062C43.9293 17.6062 42.3205 15.9942 42.3205 14.0057C42.3205 12.0171 43.9293 10.4051 45.9141 10.4051C47.8985 10.4051 49.5077 12.0171 49.5077 14.0057Z" fill="#FDF6F5"/>
</svg>
