<svg width="1118" height="1080" viewBox="0 0 1118 1080" fill="none" xmlns="http://www.w3.org/2000/svg">
<path d="M578.272 -86.6792C667.442 -70.239 748.533 -26.2987 822.443 45.4404L860.145 82.2067L870.319 71.4458C880.194 60.9839 907.423 43.348 913.408 43.348C914.904 43.348 909.518 47.5328 901.14 52.3154C892.462 57.397 883.784 63.6741 881.69 66.0654C878.997 69.3535 880.792 69.0544 887.974 64.5708C901.439 56.5001 926.574 51.1198 939.441 53.5111C945.126 54.4078 956.198 59.4893 963.678 64.5708C973.852 71.1469 984.026 74.4351 1004.97 78.022C1039.38 83.4025 1057.04 92.6687 1081.57 117.18C1112.69 148.864 1123.17 180.549 1115.69 221.201C1111.5 244.218 1096.83 274.707 1085.16 285.766C1077.09 293.239 1074.09 300.114 1067.21 327.913C1062.42 346.147 1055.84 365.875 1052.55 371.554C1042.67 388.294 1047.76 385.603 1060.03 367.669C1066.31 358.701 1072 351.228 1072.6 351.228C1074.69 351.228 1062.12 373.647 1053.15 385.902C1041.78 401.446 1011.55 424.163 987.317 435.821C972.655 442.696 968.765 445.685 970.261 449.571C982.829 481.853 983.427 539.544 971.757 576.908C956.497 625.332 930.464 662.696 891.564 691.391C863.736 712.016 768.881 761.935 741.651 770.005C721.004 776.283 718.91 782.859 718.91 844.435C718.91 886.582 720.107 900.332 724.595 914.679C732.973 942.777 749.431 983.429 765.888 1018.7C774.267 1036.34 780.551 1050.98 779.952 1051.58C760.502 1064.43 727.587 1092.53 710.831 1110.17C682.404 1140.36 664.151 1167.26 632.134 1225.55C587.549 1306.55 563.91 1336.74 522.915 1364.54C502.269 1378.59 459.479 1399.52 446.014 1402.21L437.336 1404L437.037 1338.54C436.738 1267.4 431.651 1213.29 419.382 1152.32C395.145 1031.85 354.45 945.766 310.763 923.946C289.218 912.886 277.249 912.288 210.222 919.163C124.643 927.832 94.1215 924.842 77.0654 905.114C62.104 888.076 60.0095 872.832 66.8917 826.201C68.6871 813.348 68.0886 811.853 56.4187 798.402C40.2604 779.571 40.2604 768.81 56.7179 758.049L67.7894 750.875L51.3318 735.631C37.5673 722.478 35.1736 718.592 35.1736 709.326C35.1736 703.647 37.5674 695.576 40.5597 691.69C47.4419 683.022 52.828 668.076 51.0326 662.696C50.1349 660.603 42.0558 653.728 32.7797 647.451C10.0383 632.207 2.25842 623.239 0.463013 610.685C-1.03308 601.419 0.463013 598.429 14.5267 581.391C23.5035 571.228 36.3704 555.087 43.5519 545.821C57.0171 528.484 77.0654 490.223 77.0654 482.152C77.0654 479.462 73.1754 475.875 68.3878 473.783C63.6002 471.989 55.8202 466.31 51.3318 461.228C43.5519 452.859 43.2527 452.261 50.1349 456.745C60.6079 463.919 63.8994 463.022 57.3164 454.951C51.6311 448.375 51.631 448.375 57.6156 453.158C65.994 460.033 81.8531 467.804 83.9478 466.011C84.8455 465.114 82.7509 455.25 79.7585 444.489C66.8917 400.549 61.5056 368.565 63.301 346.446C67.191 303.402 90.83 225.386 115.965 173.973C125.84 153.946 127.036 149.163 124.643 141.093C118.06 118.076 137.21 68.1578 162.944 41.5546C170.724 33.4839 185.087 20.6306 194.662 13.4567C204.237 5.98389 217.703 -4.17908 224.585 -9.55957C249.72 -28.6899 296.4 -48.1194 338.89 -56.4889C350.56 -58.8802 369.711 -64.2607 381.68 -68.7444C422.674 -83.3911 451.998 -88.4725 504.962 -89.6682C540.271 -90.5649 561.216 -89.6683 578.272 -86.6792ZM466.96 -75.9182C439.431 -71.1356 443.919 -68.1465 474.141 -71.1356C517.529 -75.3204 583.359 -70.8367 642.607 -59.478C646.796 -58.8802 644.701 -60.3748 638.118 -62.7661C603.408 -76.5161 510.946 -83.391 466.96 -75.9182ZM302.683 -42.1411C280.541 -34.6683 237.152 -13.7444 239.247 -11.652C240.145 -11.0542 245.83 -12.5487 252.413 -14.6411C258.697 -17.0325 271.564 -21.2173 280.541 -23.9075C298.494 -29.288 335.898 -49.3151 328.118 -49.3151C325.724 -49.3151 314.054 -46.027 302.683 -42.1411ZM231.766 -0.891113C216.805 7.17957 203.04 17.3425 194.961 26.6089C175.811 47.5328 178.803 49.0273 201.844 29.598C212.616 20.3317 229.672 7.47852 239.846 1.20129C259.595 -11.652 261.689 -13.4454 258.098 -13.4454C256.902 -13.4454 244.932 -7.76611 231.766 -0.891113ZM150.077 75.0328C144.093 85.7937 139.903 95.0599 140.502 95.9567C142.896 98.0491 166.834 59.7882 166.834 53.8099C166.834 48.7284 159.952 57.6959 150.077 75.0328ZM984.923 424.761C969.364 430.141 961.584 434.924 968.765 434.924C973.254 434.924 1004.67 420.576 1001.38 420.277C1000.48 419.978 993.003 422.071 984.923 424.761ZM963.08 555.685C947.221 613.076 914.006 661.799 862.539 703.647C845.184 717.696 861.941 708.728 881.989 693.185C932.259 654.625 963.08 605.006 973.254 547.016C978.34 517.723 978.64 505.169 975.647 483.946C973.553 470.794 973.254 472.288 971.458 500.984C970.261 518.62 966.371 543.131 963.08 555.685Z" fill="#0D0D0D"/>
</svg>
