<svg width="349" height="51" viewBox="0 0 349 51" fill="none" xmlns="http://www.w3.org/2000/svg">
<path d="M32.977 50.5H4.47175V50.428L0.0534472 50.5C-0.0178157 50.3559 -0.0178157 50.2118 0.0534472 50.1398C0.0534472 49.6355 0.12471 49.2753 0.267236 48.9872C0.409762 48.627 0.694814 48.4108 1.05113 48.3388C1.54997 48.1947 2.12007 48.1227 2.40513 47.6184C2.69018 47.0421 2.54765 46.3217 2.61892 45.7454L2.69018 25.214C2.69018 25.214 2.61892 4.82668 2.61892 4.75464C2.54765 4.10628 2.61892 3.31384 2.19134 2.73752C1.97755 2.44936 1.76376 2.37732 1.47871 2.30528C1.12239 2.23324 0.83734 2.1612 0.623551 1.94508C0.409762 1.87304 0.338499 1.65692 0.267236 1.51284C0.12471 1.22468 0.0534472 0.864483 0.0534472 0.360199C-0.0178157 0.28816 -0.0178157 0.144082 0.0534472 0H7.89238C7.96364 0 7.96364 0.0720391 8.03491 0.0720391H9.46017C14.1635 0.0720391 14.7336 3.74608 14.8049 6.05136C14.8049 6.05136 14.8049 6.1234 14.8049 6.19544V7.70828V13.6156V21.3238V25.214V26.4387V32.3459V33.7147V39.8381V42.7917V48.3388H27.846C28.3449 48.3388 28.8437 48.3388 29.2713 48.1947C29.6276 48.1227 29.9839 47.9786 30.269 47.8345C30.3402 47.8345 30.3402 47.8345 30.3402 47.8345C30.4828 47.7625 30.554 47.6184 30.6253 47.4743C30.6965 47.3302 30.7678 47.2582 30.7678 47.1141C30.8391 46.898 30.8391 46.7539 30.9103 46.5378C30.9816 46.4658 30.9816 46.3217 31.0529 46.2496C31.1954 46.1056 31.3379 45.9615 31.5517 45.8894C31.7655 45.7454 32.1218 45.6733 32.6206 45.6733C32.7632 45.6733 32.8344 45.6733 32.977 45.6733V50.5ZM74.6924 48.9872C74.835 49.2753 74.9062 49.6355 74.9062 50.1398C74.9062 50.2118 74.9062 50.3559 74.9062 50.428H67.0673C66.996 50.428 66.996 50.428 66.9248 50.428H65.4995C64.7869 50.428 64.2168 50.3559 63.6467 50.2118C63.6467 50.2118 63.5754 50.2118 63.5041 50.2118C63.4329 50.1398 63.3616 50.1398 63.2904 50.1398C63.2191 50.0678 63.2191 50.0678 63.1478 50.0678C63.0766 49.9957 63.0053 49.9957 63.0053 49.9957C62.934 49.9237 62.8628 49.9237 62.7915 49.9237C62.7202 49.8516 62.7203 49.8516 62.649 49.8516C62.5777 49.7796 62.5777 49.7796 62.5065 49.7076C62.4352 49.7076 62.4352 49.7076 62.4352 49.7076C62.3639 49.7076 62.3639 49.6355 62.3639 49.6355C62.2927 49.6355 62.2214 49.5635 62.1501 49.4914C62.1501 49.4914 62.0789 49.4914 62.0789 49.4194C62.0076 49.4194 61.9364 49.3474 61.8651 49.2753L61.7938 49.2033C61.7226 49.1312 61.6513 49.0592 61.58 48.9872C61.4375 48.8431 61.3663 48.771 61.295 48.699C61.2237 48.5549 61.0812 48.3388 61.0099 48.1947C58.1594 50.3559 55.3089 50.5 54.5963 50.5C53.3848 50.5 52.1733 50.428 51.1044 50.2839C49.1803 50.0678 47.5412 49.7076 46.0448 49.2033C38.1347 46.3217 36.4243 39.3338 36.3531 33.6427V33.5706C36.3531 33.4265 36.3531 33.2104 36.3531 33.0663V32.9943C36.3531 32.9223 36.3531 32.7782 36.3531 32.6341V18.8745C36.2818 18.8024 36.2818 18.6583 36.2106 18.5143C35.9255 18.01 35.3554 18.01 34.8566 17.8659C34.5002 17.7218 34.2152 17.5057 34.0727 17.1455C33.9301 16.9294 33.8589 16.5692 33.8589 16.0649C33.7876 15.9208 33.7876 15.8488 33.8589 15.7047H36.3531H39.5599C41.6265 15.7047 43.2656 15.8488 44.5483 16.281C46.9713 17.0014 48.1826 18.5863 48.5389 21.1077C48.5389 23.1969 48.5389 25.5021 48.5389 27.8795C48.5389 31.4815 48.5389 35.2275 48.5389 38.2532C48.5389 40.4864 48.824 42.4315 49.3941 44.0884C50.463 47.3302 52.3871 49.2753 54.5963 49.2753C55.594 49.2753 58.0169 48.627 59.5847 46.3217C59.6559 46.1056 59.7985 45.9615 59.8697 45.8174C59.8697 45.7454 59.941 45.7454 59.941 45.6733C60.0123 45.6013 60.0835 45.4572 60.1548 45.3131V45.2411C60.1548 44.9529 60.1548 44.7368 60.1548 44.4486C60.1548 44.4486 60.1548 44.3766 60.1548 44.3046V42.7917V36.8845V32.49V26.2946V22.5485C60.1548 22.4044 60.1548 22.2603 60.1548 22.1883C60.1548 21.7561 60.226 21.3238 60.226 20.9636C60.7962 17.1455 63.4329 15.7047 69.1339 15.7047H72.3408H74.9062C74.9062 15.8488 74.9062 15.9208 74.9062 16.0649C74.9062 16.5692 74.835 16.9294 74.6924 17.1455C74.5499 17.5057 74.2649 17.7218 73.9085 17.8659C73.4097 18.01 72.7683 18.082 72.5545 18.5863C72.1982 19.0906 72.3408 19.811 72.3408 20.4593V26.7989C72.3408 35.8039 72.3408 45.7454 72.3408 45.7454C72.3408 46.3937 72.3408 47.2582 72.7683 47.8345C72.9821 48.0506 73.1959 48.1947 73.481 48.1947C73.766 48.2668 74.1223 48.3388 74.3361 48.5549C74.4786 48.627 74.6212 48.8431 74.6924 48.9872ZM118.548 48.9872C118.69 49.2753 118.761 49.6355 118.761 50.1398C118.761 50.2118 118.761 50.3559 118.761 50.5L115.412 50.428H112.989C110.994 50.428 109.355 50.2839 108.072 49.8516C105.293 48.9872 104.081 47.1141 104.01 43.8003C104.01 43.7282 104.01 43.6562 104.01 43.5842V39.8381V37.821C103.939 36.02 103.868 34.3631 103.868 33.2825C103.868 28.9601 102.799 24.3495 99.0929 24.3495C96.1711 24.3495 93.962 23.2689 92.4654 21.9001V23.3409V29.2482V33.7147V39.8381V43.5842C92.4654 43.7282 92.4654 43.8723 92.4654 44.0164C92.4654 44.4486 92.3942 44.8809 92.3229 45.2411C91.8241 49.0592 89.1873 50.428 83.415 50.428H80.2795H77.714C77.714 50.3559 77.714 50.2118 77.714 50.1398C77.714 49.6355 77.7852 49.2753 77.9278 48.9872C78.0703 48.627 78.3554 48.4108 78.7117 48.3388C79.2105 48.1947 79.7806 48.1227 80.0657 47.6184C80.3507 47.0421 80.2795 46.3217 80.2795 45.7454V39.3338C80.2795 30.4009 80.2795 20.4593 80.2795 20.4593C80.2082 19.7389 80.2795 18.9465 79.8519 18.3702C79.6381 18.082 79.4243 18.01 79.1392 17.9379C78.7829 17.8659 78.4979 17.7939 78.2841 17.6498C78.0703 17.5057 77.999 17.3616 77.9278 17.1455C77.7852 16.9294 77.714 16.5692 77.714 16.0649C77.6427 15.9208 77.6427 15.8488 77.714 15.7047H85.5529C85.6242 15.7047 85.6242 15.7047 85.6954 15.7047H87.1207C87.7621 15.7047 88.4034 15.7768 88.9023 15.9208C89.9712 16.209 90.7551 16.7853 91.254 17.5057C91.539 17.7939 91.7528 18.1541 91.8953 18.5143C93.3919 20.8195 96.1711 22.6205 101.017 22.1883C113.844 21.1797 116.267 25.6462 116.267 33.8588V45.6733C116.267 46.1056 116.267 46.5378 116.196 46.898C116.196 47.1862 116.267 47.4023 116.41 47.6184C116.624 48.1227 117.265 48.1947 117.764 48.3388C118.12 48.4829 118.405 48.627 118.548 48.9872ZM158.4 48.9872C158.472 49.2753 158.543 49.6355 158.614 50.1398C158.614 50.2118 158.614 50.3559 158.614 50.428H150.704C150.633 50.428 150.633 50.428 150.561 50.428H149.207C144.433 50.428 143.863 46.7539 143.791 44.4486C143.791 44.4486 143.791 44.3766 143.791 44.3046V43.9444C137.378 54.8944 121.272 50.6441 121.272 41.9272C121.272 31.6255 130.679 30.4009 135.596 30.4009C143.791 30.4009 143.72 23.7732 143.72 23.7732H143.791V20.4593C143.791 18.5863 143.008 17.7939 141.44 17.7939H138.304C134.812 17.7939 134.028 23.7011 134.385 24.8538C134.599 25.7183 135.739 25.7903 135.454 26.8709C135.382 27.087 135.311 27.2311 135.24 27.5193L133.815 26.8709L125.691 23.1969C126.047 22.0442 126.617 20.7475 127.472 19.5228C128.969 17.4337 131.392 15.7047 135.382 15.7047C135.382 15.7047 137.948 15.7047 138.661 15.7047H145.716H146.927C153.412 15.7047 155.977 17.5777 155.977 22.5485V26.2946V31.1213C155.977 37.1006 156.049 45.6733 156.049 45.7454C156.049 46.3937 156.049 47.1862 156.405 47.7625C156.619 48.0506 156.833 48.1227 157.189 48.1947C157.474 48.2668 157.759 48.3388 158.044 48.5549C158.187 48.627 158.329 48.8431 158.4 48.9872ZM143.72 36.8845C143.72 34.7953 143.72 33.3545 143.791 32.3459V29.6084C142.865 30.8331 141.369 32.1298 138.946 32.3459C134.741 32.7782 133.173 36.1641 133.387 40.7026C133.672 48.1947 143.72 47.2582 143.72 36.8845ZM209.693 50.428H208.268C203.564 50.428 202.923 46.7539 202.923 44.4486C202.923 44.4486 202.923 44.3766 202.923 44.3046V42.7917V36.8845V29.1762V25.286V24.0613V18.1541V16.7853V10.6619V7.70828V2.1612H189.811C189.312 2.1612 188.884 2.1612 188.457 2.30528C188.1 2.37732 187.744 2.5214 187.388 2.66548C187.388 2.66548 187.388 2.66548 187.317 2.66548C187.174 2.73752 187.103 2.8816 187.031 3.02568C186.96 3.16976 186.96 3.2418 186.96 3.38588C186.889 3.602 186.818 3.74608 186.818 3.9622C186.746 4.03424 186.675 4.17832 186.604 4.25036C186.533 4.39444 186.319 4.53852 186.176 4.61055C185.891 4.75464 185.535 4.82668 185.036 4.82668C184.965 4.82668 184.822 4.82668 184.751 4.82668V0.0720391H233.352V4.82668C233.21 4.82668 233.067 4.82668 232.996 4.82668C232.497 4.82668 232.141 4.75464 231.856 4.61055C231.713 4.53852 231.571 4.39444 231.428 4.25036C231.357 4.17832 231.286 4.03424 231.286 3.9622C231.215 3.74608 231.143 3.602 231.143 3.38588C231.072 3.2418 231.072 3.16976 231.001 3.02568C230.929 2.8816 230.858 2.73752 230.716 2.66548C230.644 2.66548 230.644 2.66548 230.644 2.66548C230.288 2.5214 230.003 2.37732 229.647 2.30528C229.148 2.1612 228.72 2.1612 228.221 2.08916H215.109L215.038 25.214C215.038 25.214 215.109 45.6733 215.109 45.7454C215.109 46.3937 215.109 47.1862 215.537 47.7625C215.679 48.0506 215.964 48.1227 216.249 48.1947C216.534 48.2668 216.819 48.3388 217.104 48.5549C217.247 48.627 217.39 48.8431 217.461 48.9872C217.603 49.2753 217.675 49.6355 217.675 50.1398C217.675 50.2118 217.675 50.3559 217.675 50.428H209.764H209.693ZM268.375 0.0720391V0H276.286C276.286 0.144082 276.286 0.28816 276.286 0.360199C276.286 0.864483 276.214 1.22468 276.072 1.51284C276.001 1.65692 275.858 1.87304 275.715 1.94508C275.43 2.1612 275.145 2.23324 274.86 2.30528C274.575 2.37732 274.29 2.44936 274.148 2.66548C273.72 3.2418 273.72 4.10628 273.72 4.75464C273.72 4.75464 273.649 30.4009 273.649 36.4522V39.8381V43.5842C273.649 44.1605 273.649 44.7368 273.578 45.2411C273.007 48.9872 270.371 50.428 264.67 50.428H258.897C258.897 50.3559 258.897 50.2118 258.897 50.1398C258.897 49.6355 258.969 49.2753 259.111 48.9872C259.254 48.627 259.61 48.4108 259.966 48.3388C260.394 48.1947 261.035 48.1227 261.249 47.6184C261.605 47.0421 261.463 46.3217 261.463 45.7454V32.3459H261.534V17.9379C260.18 20.2432 258.399 22.3324 256.261 23.9893V26.2946V31.1213C256.261 37.1006 256.332 45.6733 256.332 45.7454C256.332 46.3937 256.332 47.1862 256.688 47.7625C256.902 48.0506 257.116 48.1227 257.472 48.1947C257.757 48.2668 258.042 48.3388 258.327 48.5549C258.47 48.627 258.612 48.8431 258.684 48.9872C258.755 49.2753 258.826 49.6355 258.897 50.1398C258.897 50.2118 258.897 50.3559 258.897 50.428H250.987C250.916 50.428 250.916 50.428 250.845 50.428H249.491C244.716 50.428 244.146 46.7539 244.075 44.4486C244.075 44.4486 244.075 44.3766 244.075 44.3046V43.9444C237.661 54.8944 221.556 50.6441 221.556 41.9272C221.556 31.6255 230.962 30.4009 235.879 30.4009C244.075 30.4009 244.003 23.7732 244.003 23.7732H244.075V20.4593C244.075 18.5863 243.291 17.7939 241.723 17.7939H238.587C235.096 17.7939 234.312 23.7011 234.668 24.8538C234.882 25.7183 236.022 25.7903 235.737 26.8709C235.666 27.087 235.594 27.2311 235.523 27.5193L234.098 26.8709L225.974 23.1969C226.33 22.0442 226.9 20.7475 227.755 19.5228C229.252 17.4337 231.675 15.7047 235.666 15.7047C235.666 15.7047 238.231 15.7047 238.944 15.7047H245.999H247.21C252.698 15.7047 255.406 17.0014 256.047 20.4593C259.182 17.4337 261.035 13.3274 261.534 8.42868V7.70828V6.19544C261.534 6.1234 261.534 6.05136 261.534 6.05136C261.534 3.74608 262.175 0.0720391 266.879 0.0720391H268.304H268.375ZM244.003 36.8845C244.003 34.7953 244.003 33.3545 244.075 32.3459V29.6084C243.148 30.8331 241.652 32.1298 239.229 32.3459C235.024 32.7782 233.456 36.1641 233.67 40.7026C233.955 48.1947 244.003 47.2582 244.003 36.8845ZM333.322 30.1847C339.807 31.0492 349 31.1213 349 38.6855C349 48.4829 336.244 50.5 331.968 50.5C314.58 50.5 314.936 37.6769 314.936 37.6769H327.692C327.692 39.622 326.196 38.9736 325.697 39.4779C325.626 39.622 325.554 39.766 325.554 39.9101C325.554 45.9615 328.476 49.2753 332.61 49.2753C334.534 49.2753 336.6 47.5464 337.455 44.5207C339.807 32.3459 318.998 39.622 315.435 29.9686C315.221 30.2568 315.079 30.5449 314.936 30.8331C313.939 32.2739 312.798 33.5706 311.516 34.7233C311.587 35.1555 311.729 35.7318 311.872 36.4522C312.371 39.766 312.3 45.6733 305.957 48.771C303.605 49.9237 300.969 50.3559 298.332 50.3559C297.477 50.428 296.622 50.5 295.695 50.5C292.203 50.5 289.424 49.9957 287.144 49.2033C278.948 46.2496 277.452 38.9016 277.452 33.0663V32.9943C277.452 32.8502 277.452 32.7061 277.452 32.49C277.666 25.1419 279.875 15.6327 295.695 15.6327C296.55 15.6327 297.406 15.6327 298.261 15.7047C298.261 15.7047 298.261 15.7047 298.332 15.7047C307.596 15.7047 310.874 20.3153 312.014 23.9893L300.47 28.0956L289.21 31.9857C289.21 32.3459 289.21 32.7061 289.21 33.0663C289.282 39.766 291.277 49.2753 295.695 49.2753C297.263 49.2753 302.18 47.6904 302.18 40.6305C302.18 40.2703 302.038 38.1812 301.468 36.9565C303.463 36.3802 305.173 35.6598 306.741 34.7233C310.019 32.7782 313.725 28.9601 315.72 24.2054C318.784 16.7853 325.626 15.5606 331.968 15.4886C332.182 15.4886 332.324 15.4886 332.467 15.5606C348.572 15.9929 349 28.3117 349 28.3117H336.315C336.244 26.3666 337.74 27.015 338.239 26.5107C338.311 26.3666 338.382 26.2225 338.453 26.0785C339.451 23.1969 336.6 16.7133 332.467 16.7133C330.258 16.7133 326.623 18.7304 326.623 22.4044V22.7646C326.623 26.1505 328.12 29.4643 333.322 30.1847ZM290.279 24.3495C289.852 26.2225 289.495 28.2397 289.353 30.1847L301.753 25.7903C301.753 25.7903 301.753 25.7183 301.824 25.7183C301.824 25.7183 301.824 25.7183 301.824 25.6462C301.824 25.5021 301.753 25.214 301.753 24.9979C301.325 22.1883 298.831 16.7853 295.695 16.7853C294.484 16.7853 293.486 17.5057 292.631 18.6583C291.633 20.0271 290.849 22.1163 290.279 24.3495Z" fill="#FDF6F5"/>
</svg>
