<svg width="1118" height="1080" viewBox="0 0 1118 1080" fill="none" xmlns="http://www.w3.org/2000/svg">
<path d="M539.728 -86.6769C450.558 -70.2256 369.467 -26.256 295.557 45.5311L257.855 82.322L247.681 71.554C237.806 61.085 210.577 43.4374 204.592 43.4374C203.096 43.4374 208.482 47.6249 216.86 52.4108C225.538 57.4956 234.216 63.777 236.31 66.1699C239.003 69.4602 237.208 69.161 230.026 64.6743C216.561 56.5983 191.426 51.2142 178.559 53.6072C172.874 54.5045 161.802 59.5895 154.322 64.6743C144.148 71.2549 133.974 74.545 113.028 78.1344C78.6171 83.5184 60.9626 92.791 36.4259 117.318C5.3062 149.024 -5.16678 180.73 2.31392 221.41C6.50311 244.441 21.1653 274.951 32.8352 286.018C40.9143 293.496 43.9066 300.375 50.7889 328.193C55.5765 346.439 62.1595 366.18 65.451 371.864C75.3256 388.614 70.2387 385.922 57.9703 367.975C51.6866 359.002 46.0012 351.524 45.4028 351.524C43.3082 351.524 55.8757 373.957 64.8526 386.221C76.2233 401.775 106.445 424.507 130.683 436.173C145.345 443.052 149.235 446.044 147.739 449.932C135.171 482.236 134.573 539.965 146.243 577.354C161.503 625.81 187.536 663.2 226.436 691.914C254.264 712.553 349.119 762.505 376.349 770.581C396.996 776.863 399.09 783.443 399.09 845.06C399.09 887.235 397.893 900.994 393.405 915.352C385.027 943.469 368.569 984.148 352.112 1019.44C343.733 1037.09 337.449 1051.75 338.048 1052.35C357.498 1065.21 390.413 1093.32 407.169 1110.97C435.596 1141.18 453.849 1168.1 485.866 1226.43C530.451 1307.49 554.09 1337.7 595.085 1365.52C615.731 1379.58 658.521 1400.51 671.986 1403.21L680.664 1405L680.963 1339.49C681.262 1268.31 686.349 1214.17 698.618 1153.15C722.855 1032.6 763.55 946.46 807.237 924.624C828.782 913.557 840.751 912.959 907.778 919.839C993.357 928.513 1023.88 925.522 1040.93 905.78C1055.9 888.731 1057.99 873.476 1051.11 826.814C1049.31 813.953 1049.91 812.457 1061.58 798.997C1077.74 780.153 1077.74 769.385 1061.28 758.617L1050.21 751.438L1066.67 736.183C1080.43 723.022 1082.83 719.134 1082.83 709.861C1082.83 704.178 1080.43 696.102 1077.44 692.214C1070.56 683.539 1065.17 668.584 1066.97 663.2C1067.87 661.106 1075.94 654.226 1085.22 647.945C1107.96 632.69 1115.74 623.717 1117.54 611.154C1119.03 601.881 1117.54 598.89 1103.47 581.841C1094.5 571.671 1081.63 555.519 1074.45 546.246C1060.98 528.898 1040.93 490.611 1040.93 482.535C1040.93 479.843 1044.82 476.254 1049.61 474.16C1054.4 472.365 1062.18 466.682 1066.67 461.597C1074.45 453.222 1074.75 452.624 1067.87 457.111C1057.39 464.289 1054.1 463.392 1060.68 455.316C1066.37 448.736 1066.37 448.736 1060.38 453.521C1052.01 460.401 1036.15 468.178 1034.05 466.383C1033.15 465.486 1035.25 455.615 1038.24 444.847C1051.11 400.877 1056.49 368.872 1054.7 346.738C1050.81 303.666 1027.17 225.597 1002.03 174.15C992.16 154.109 990.963 149.323 993.357 141.247C999.94 118.216 980.79 68.2637 955.056 41.6427C947.276 33.5667 932.913 20.7047 923.338 13.526C913.763 6.04822 900.297 -4.1217 893.415 -9.50574C868.28 -28.6489 821.6 -48.0913 779.11 -56.4664C767.44 -58.8594 748.289 -64.2434 736.32 -68.7301C695.326 -83.3866 666.002 -88.4716 613.038 -89.668C577.729 -90.5653 556.784 -89.668 539.728 -86.6769ZM651.04 -75.9088C678.569 -71.1229 674.081 -68.1318 643.859 -71.1229C600.471 -75.3105 534.641 -70.8239 475.393 -59.4575C471.204 -58.8594 473.299 -60.3549 479.882 -62.7478C514.592 -76.507 607.054 -83.3866 651.04 -75.9088ZM815.317 -42.109C837.459 -34.6312 880.848 -13.6932 878.753 -11.5995C877.855 -11.0012 872.17 -12.4968 865.587 -14.5906C859.303 -16.9835 846.436 -21.1711 837.459 -23.8632C819.506 -29.2472 782.102 -49.2877 789.882 -49.2877C792.276 -49.2877 803.946 -45.9974 815.317 -42.109ZM886.234 -0.831421C901.195 7.24463 914.96 17.4146 923.039 26.687C942.189 47.6249 939.197 49.1205 916.156 29.6781C905.384 20.4056 888.328 7.5437 878.154 1.26233C858.405 -11.5995 856.311 -13.3942 859.902 -13.3942C861.098 -13.3942 873.068 -7.71106 886.234 -0.831421ZM967.923 75.1433C973.907 85.9114 978.097 95.1838 977.498 96.0812C975.104 98.175 951.166 59.8885 951.166 53.9062C951.166 48.8214 958.048 57.7948 967.923 75.1433ZM133.077 425.106C148.636 430.49 156.416 435.275 149.235 435.275C144.746 435.275 113.328 420.918 116.619 420.619C117.517 420.32 124.997 422.414 133.077 425.106ZM154.92 556.117C170.779 613.547 203.994 662.302 255.461 704.178C272.816 718.236 256.059 709.263 236.011 693.709C185.741 655.124 154.92 605.471 144.746 547.443C139.66 518.13 139.36 505.567 142.353 484.33C144.447 471.169 144.746 472.665 146.542 501.379C147.739 519.027 151.629 543.554 154.92 556.117Z" fill="url(#paint0_linear_3_33)"/>
<defs>
<linearGradient id="paint0_linear_3_33" x1="923.493" y1="735.552" x2="609.512" y2="-60.9186" gradientUnits="userSpaceOnUse">
<stop stop-color="#0D0D0D"/>
<stop offset="1" stop-color="#FF4A80"/>
</linearGradient>
</defs>
</svg>
