<svg width="51" height="60" viewBox="0 0 51 60" fill="none" xmlns="http://www.w3.org/2000/svg">
<path d="M20.6979 22.3443V32.6568C19.4529 32.3146 18.1501 32.2679 16.8855 32.5201C15.6209 32.7724 14.4267 33.3174 13.3909 34.1146C12.3552 34.9119 11.5043 35.9412 10.9009 37.1269C10.2975 38.3124 9.95708 39.6241 9.90465 40.965C9.83381 42.1196 10.0008 43.2765 10.3946 44.3582C10.7883 45.4402 11.3996 46.4211 12.1874 47.2365C12.9751 48.0515 13.9211 48.6815 14.9618 49.0835C16.0025 49.4861 17.1137 49.6517 18.2209 49.5694C24.3658 49.5694 26.537 45.0694 26.537 40.8488V0H36.3193C37.9832 10.7869 43.1553 13.29 50.0879 14.4469V24.7818C50.0879 24.7818 41.8636 24.1724 36.5963 20.0325V40.4492C36.591 49.6876 31.3364 60 18.2946 60C6.19175 60 0 49.3122 0 40.3538C0.0772116 37.6995 0.693327 35.0922 1.8078 32.7045C2.92223 30.3165 4.50973 28.2018 6.46552 26.5001C8.42133 24.7984 10.701 23.5481 13.1542 22.8318C15.6075 22.1154 18.1786 21.9493 20.6979 22.3443Z" fill="#FDF6F5"/>
</svg>
