<svg width="91" height="60" viewBox="0 0 91 60" fill="none" xmlns="http://www.w3.org/2000/svg">
<path fill-rule="evenodd" clip-rule="evenodd" d="M85.8122 4.49999C87.7337 6.95559 88.9792 9.86815 89.4253 12.95C89.9868 17.5294 90.2884 22.1367 90.3286 26.75V33.2C90.2904 37.8299 89.9888 42.454 89.4253 47.0502C88.9792 50.1316 87.7337 53.0445 85.8122 55.4999C83.3658 57.7937 80.1385 59.0799 76.7793 59.0999C64.1333 60 45.1643 60 45.1643 60C45.1643 60 21.6789 60 14.5529 59.1499C10.8836 59.1309 7.33533 57.8402 4.51643 55.4999C2.58692 53.03 1.34111 50.0991 0.903286 47.0002C0.341409 42.4206 0.0398329 37.8133 0 33.2V26.75C0.0379388 22.12 0.339519 17.4959 0.903286 12.9C1.34953 9.81814 2.59491 6.90563 4.51643 4.44998C6.96293 2.15631 10.1901 0.870174 13.5493 0.850021C26.1953 2.23549e-07 45.1643 0 45.1643 0C45.1643 0 64.1333 1.49033e-07 76.7793 0.899978C80.1385 0.92018 83.3658 2.20631 85.8122 4.49999ZM65.2373 30.0043L35.1278 15.0021V45.0064L65.2373 30.0043Z" fill="#FDF6F5"/>
</svg>
