<svg width="1164" height="493" viewBox="0 0 1164 493" fill="none" xmlns="http://www.w3.org/2000/svg">
<path d="M14.2441 394.884C14.1451 394.284 14.2988 393.651 14.7052 392.984C15.2063 392.284 15.7871 391.664 16.4474 391.121C17.0453 390.706 17.6594 390.338 18.2896 390.018C18.9199 389.697 19.4404 389.519 19.8513 389.485C21.4302 389.158 22.636 389.75 23.4688 391.262C25.2604 389.7 27.4167 388.278 29.9377 386.995C32.521 385.586 35.0753 384.556 37.6007 383.906C40.3153 383.192 42.8751 382.952 45.2802 383.189C47.7476 383.298 49.9828 384.12 51.9858 385.656C54.4018 387.473 56.3824 390.337 57.9276 394.248C59.4405 398.064 60.4479 401.946 60.9498 405.896L61.0918 405.847C62.5416 405.141 63.9301 404.721 65.2573 404.585C66.5523 404.354 67.3344 405.408 67.6037 407.747C67.6793 409.517 66.9331 411.356 65.3652 413.265C63.823 414.319 61.6022 415.552 58.7027 416.964C55.8978 418.343 52.966 419.66 49.9072 420.915C46.7538 422.202 43.7101 423.346 40.7761 424.346C37.9368 425.315 35.5857 426.011 33.7228 426.435C32.0816 426.889 30.5962 427.026 29.2668 426.846C27.9373 426.665 26.795 426.104 25.8397 425.162C24.8199 424.031 23.6687 422.205 22.3862 419.684C21.0714 417.068 19.8501 414.262 18.7224 411.266C17.5947 408.269 16.5939 405.335 15.72 402.464C14.9085 399.465 14.4166 396.939 14.2441 394.884ZM32.8868 463.014C31.1208 463.722 29.8927 464.458 29.2023 465.221C28.6065 465.953 28.6465 467.154 29.3223 468.826C30.0949 470.781 31.1771 471.785 32.5689 471.839C33.9284 471.798 35.4761 471.534 37.212 471.048C41 470.072 45.087 468.89 49.473 467.499C53.9537 466.077 57.818 464.706 61.066 463.386C62.9266 462.646 65.1185 461.793 67.6417 460.827C70.2272 459.733 72.7654 458.656 75.2562 457.595C77.9364 456.47 80.4746 455.393 82.8708 454.364C85.3617 453.303 87.5686 452.339 89.4916 451.472C90.5283 450.484 91.438 449.434 92.2209 448.322C93.0983 447.177 93.3595 446.085 93.0044 445.044C92.5546 444.035 91.9328 443.296 91.139 442.827C90.4398 442.326 89.6793 442.11 88.8576 442.179C88.1305 442.216 87.3098 442.443 86.3957 442.86C85.4492 443.183 84.5501 443.49 83.6983 443.78C80.4825 445.194 77.0302 446.689 73.3412 448.264C69.7146 449.712 65.946 451.209 62.0355 452.754C60.7163 449.506 59.3637 446.005 57.9777 442.252C56.6541 438.371 55.7758 434.867 55.3429 431.74C54.852 429.371 54.0493 427.638 52.9349 426.538C51.8827 425.312 50.3963 425.291 48.4755 426.475C47.7205 427.049 47.0301 427.813 46.4043 428.766C45.8409 429.592 45.485 430.717 45.3368 432.141C45.1931 434.198 45.3193 436.426 45.7155 438.827C46.2064 441.195 46.7401 442.915 47.3168 443.986C47.8011 445.406 48.5414 447.267 49.5378 449.568C50.6288 451.838 51.751 454.043 52.9044 456.186C45.5242 459.02 38.8517 461.296 32.8868 463.014ZM41.7388 392.321C39.6221 392.62 37.1451 393.412 34.308 394.697C31.5332 395.855 28.7305 397.55 25.8999 399.784C26.8684 402.623 28.0446 405.761 29.4284 409.199C30.8745 412.509 32.1754 415.394 33.3309 417.852C35.8864 416.981 38.8354 415.869 42.1781 414.517C45.5831 413.039 48.7827 411.578 51.7769 410.134C51.5098 408.112 51.0685 406.044 50.4529 403.929C49.932 401.782 49.2379 399.747 48.3706 397.824C47.5056 396.218 46.5158 394.865 45.4013 393.766C44.2869 392.667 43.066 392.185 41.7388 392.321ZM123.191 354.712C121.3 355.673 119.157 356.669 116.761 357.697C114.364 358.726 111.715 359.788 108.814 360.883C106.007 361.947 103.136 362.979 100.202 363.979C97.3626 364.948 94.5383 365.806 91.729 366.553C92.4136 369.489 93.2401 372.377 94.2086 375.216C95.2395 377.928 96.7102 380.227 98.6207 382.111C100.181 383.586 101.768 384.524 103.384 384.924C105.062 385.197 107.511 384.942 110.731 384.161C113.857 383.412 117.042 382.219 120.288 380.584C123.502 378.854 126.51 377.141 129.312 375.446C130.289 374.901 131.41 374.624 132.674 374.616C134.034 374.575 135.051 375.232 135.724 376.587C136.651 378.067 136.802 379.283 136.176 380.236C135.613 381.062 134.829 382.016 133.825 383.099C132.472 384.088 130.835 385.175 128.914 386.358C127.056 387.415 125.181 388.424 123.29 389.386C121.116 390.445 119.003 391.377 116.954 392.181C114.998 392.954 113.373 393.456 112.078 393.686C108.826 394.373 105.459 394.57 101.979 394.278C98.5926 393.954 95.3097 392.538 92.1298 390.03C89.7762 388.086 87.717 385.302 85.9525 381.677C84.1879 378.053 82.8448 373.651 81.9233 368.471C81.3231 368.57 80.7864 368.7 80.3132 368.862C79.8077 368.928 79.286 368.948 78.7482 368.92C77.2918 368.677 76.1194 368.337 75.2309 367.901C74.3424 367.464 73.5001 366.854 72.7041 366.068C71.5206 364.148 71.6526 362.676 73.1002 361.654C74.5478 360.632 76.4396 359.828 78.7756 359.243C80.8278 358.754 83.7478 358.022 87.5359 357.047C91.2916 355.977 95.2205 354.796 99.3225 353.502C103.33 352.241 107.195 351.028 110.919 349.864C114.61 348.605 117.322 347.574 119.056 346.771C121.168 345.839 122.826 345.433 124.028 345.551C125.293 345.542 126.118 345.947 126.503 346.767C126.727 347.113 126.905 347.634 127.036 348.328C127.167 349.023 127.077 349.688 126.765 350.323C126.518 351.146 126.113 351.972 125.549 352.798C125.081 353.592 124.294 354.229 123.191 354.712ZM94.4082 410.649C98.1639 409.579 102.282 408.333 106.763 406.91C111.211 405.393 115.738 403.796 120.343 402.119C124.949 400.443 129.412 398.815 133.733 397.235C138.117 395.528 142.17 393.935 145.891 392.454C146.743 392.164 147.642 391.857 148.588 391.534C149.535 391.211 150.355 390.984 151.05 390.853C151.777 390.816 152.49 391.048 153.19 391.549C153.951 391.924 154.51 392.631 154.865 393.672C155.317 394.997 155.135 396.169 154.32 397.186C153.6 398.172 152.641 399.08 151.445 399.91C149.522 400.777 147.316 401.741 144.825 402.802C142.396 403.736 139.826 404.719 137.113 405.75C134.495 406.748 131.925 407.731 129.402 408.697C126.879 409.663 124.671 410.469 122.778 411.115C119.403 412.372 115.522 413.695 111.136 415.086C106.75 416.476 102.647 417.612 98.8269 418.492C97.0587 418.884 95.4475 419.117 93.9934 419.19C92.6016 419.136 91.5667 418.116 90.8887 416.128C90.213 414.457 90.2364 413.287 90.9591 412.618C91.6818 411.948 92.8315 411.292 94.4082 410.649ZM125.917 425.893C126.121 428.042 126.421 430.159 126.815 432.243C127.176 434.233 127.679 436.016 128.323 437.593C128.966 439.169 129.797 440.365 130.814 441.18C131.832 441.996 133.1 442.461 134.619 442.577C136.989 442.402 139.845 441.481 143.185 439.813C146.526 438.146 149.736 435.941 152.816 433.2C153.663 432.277 154.625 431.844 155.7 431.899C156.838 431.828 157.744 432.47 158.418 433.825C158.994 434.896 159.066 436.034 158.631 437.239C158.259 438.317 157.635 439.428 156.757 440.573C155.286 442.765 153.165 444.756 150.395 446.546C147.657 448.431 144.773 449.89 141.745 450.923C138.621 451.989 135.526 452.516 132.459 452.506C129.423 452.59 126.808 451.739 124.614 449.952C121.404 447.666 119.167 444.361 117.904 440.037C116.64 435.713 115.977 431.291 115.914 426.769C115.967 425.377 116.435 424.425 117.317 423.913C118.167 423.306 119.239 422.888 120.534 422.657C121.923 422.395 123.095 422.576 124.048 423.202C125.096 423.796 125.719 424.693 125.917 425.893ZM248.911 327.202C251.85 331.482 254.572 336.365 257.077 341.85C259.549 347.24 261.739 352.886 263.646 358.786C264.78 362.731 265.787 366.456 266.665 369.96C267.511 373.369 267.931 376.924 267.925 380.624C267.807 381.826 267.45 382.793 266.854 383.525C266.353 384.224 265.724 384.703 264.967 384.961C263.453 385.478 262.169 385.123 261.117 383.897C260.128 382.544 259.294 380.874 258.616 378.886C258.164 377.561 257.775 376.267 257.45 375.005C257.22 373.71 257.022 372.509 256.856 371.404C256.206 368.878 255.572 366.4 254.954 363.97C254.304 361.444 253.592 359.046 252.817 356.774C251.816 353.84 250.433 350.561 248.669 346.937C246.904 343.312 245.269 340.067 243.762 337.199C242.037 334.618 240.567 332.478 239.354 330.779C238.108 328.985 237.081 326.905 236.274 324.539C235.015 320.848 235.427 318.647 237.509 317.937C238.55 317.582 239.595 317.701 240.642 318.294C241.69 318.888 242.676 319.766 243.602 320.93C244.557 321.872 245.466 322.988 246.329 324.279C247.286 325.537 248.147 326.512 248.911 327.202ZM203.007 363.146C203.43 360.36 204.407 357.649 205.938 355.014C207.437 352.284 209.177 350.106 211.158 348.479C212.384 347.427 213.598 346.96 214.801 347.078C216.066 347.069 217.114 347.663 217.944 348.859C218.392 349.551 218.713 350.34 218.909 351.224C219.073 352.013 219.014 352.614 218.732 353.027C219.614 352.515 220.672 352.366 221.907 352.578C223.142 352.791 224.489 353.177 225.947 353.736C227.216 354.36 228.408 355.221 229.523 356.32C230.605 357.325 231.498 358.394 232.202 359.527C233.062 360.501 233.529 361.716 233.603 363.17C233.676 364.624 233.512 366.001 233.11 367.3C232.804 368.883 232.229 370.295 231.384 371.534C230.539 372.773 229.613 373.776 228.606 374.542C226.279 376.392 223.902 377.942 221.476 379.193C219.112 380.316 216.695 380.665 214.226 380.239C212.201 380.19 210.458 379.57 208.995 378.378C207.532 377.187 206.321 375.804 205.361 374.229C204.147 372.53 203.36 370.686 202.998 368.696C202.636 366.706 202.639 364.856 203.007 363.146ZM213.527 368.433C214.334 370.799 216.125 371.403 218.9 370.245C219.53 369.925 220.222 369.477 220.977 368.903C221.7 368.233 222.453 367.343 223.236 366.231C223.702 365.12 223.79 364.139 223.5 363.288C223.209 362.436 222.698 361.712 221.967 361.116C220.125 360.054 218.869 359.003 218.197 357.964C217.621 356.893 217.44 355.898 217.655 354.98C217.216 355.552 216.684 356.315 216.058 357.268C215.4 358.126 214.821 359.063 214.322 360.079C213.699 361.348 213.265 362.711 213.023 364.167C212.874 365.591 213.042 367.013 213.527 368.433ZM325.302 301.145C326.165 302.436 327.012 303.837 327.845 305.349C328.74 306.734 329.62 308.23 330.485 309.837C331.806 308.753 333.317 307.762 335.018 306.865C336.688 305.873 338.358 305.039 340.029 304.363C341.038 303.913 342.537 303.507 344.527 303.146C346.485 302.689 348.366 302.629 350.171 302.964C352.354 303.17 354.051 303.965 355.263 305.348C356.446 307.269 356.52 308.723 355.483 309.71C354.446 310.698 353.044 311.388 351.276 311.779C344.771 313.153 339.012 315.011 334.001 317.355C334.836 319.183 335.655 321.122 336.46 323.172C337.233 325.127 338.038 327.177 338.875 329.322C340.45 328.362 342.009 327.513 343.553 326.775C345.065 325.943 346.61 325.204 348.187 324.561C349.195 324.111 350.837 323.657 353.11 323.198C355.352 322.645 357.532 322.377 359.651 322.394C360.821 322.417 361.803 322.663 362.597 323.132C363.485 323.569 364.264 324.148 364.933 324.871C366.304 326.411 366.376 327.707 365.15 328.759C363.924 329.811 362.238 330.598 360.091 331.119C356.649 331.87 353.414 332.762 350.386 333.796C347.325 334.734 344.281 335.878 341.254 337.227C342.098 340.32 342.799 343.304 343.357 346.178C343.977 348.925 344.296 351.721 344.316 354.567C344.198 355.77 343.841 356.737 343.246 357.468C342.744 358.167 342.115 358.646 341.358 358.904C339.844 359.421 338.561 359.066 337.508 357.84C336.519 356.487 335.685 354.817 335.007 352.829C334.555 351.504 334.166 350.211 333.841 348.948C333.611 347.653 333.413 346.453 333.247 345.347C332.597 342.822 331.963 340.344 331.345 337.913C330.695 335.387 329.983 332.989 329.208 330.718C328.207 327.784 326.824 324.504 325.06 320.88C323.295 317.256 321.66 314.01 320.154 311.142C318.428 308.561 316.958 306.421 315.745 304.722C314.499 302.928 313.473 300.848 312.665 298.482C311.406 294.791 311.818 292.59 313.9 291.88C314.941 291.525 315.986 291.644 317.033 292.238C318.081 292.831 319.068 293.71 319.993 294.873C320.948 295.815 321.857 296.932 322.72 298.222C323.677 299.48 324.538 300.455 325.302 301.145ZM279.834 338.367C280.289 335.676 281.283 333.012 282.814 330.377C284.313 327.647 286.085 325.563 288.13 324.126C289.292 322.884 290.474 322.323 291.676 322.441C292.973 322.527 294.021 323.12 294.819 324.221C295.235 324.819 295.556 325.608 295.785 326.587C296.013 327.565 295.97 328.214 295.656 328.532C296.57 328.115 297.628 327.965 298.831 328.083C300.033 328.201 301.364 328.54 302.823 329.099C304.06 329.628 305.235 330.442 306.35 331.541C307.464 332.64 308.357 333.709 309.029 334.748C309.954 335.912 310.437 337.173 310.478 338.533C310.519 339.892 310.387 341.364 310.082 342.947C309.68 344.246 309.056 345.516 308.211 346.755C307.366 347.994 306.456 349.044 305.482 349.905C303.187 351.85 300.81 353.4 298.351 354.555C295.955 355.584 293.571 356.028 291.198 355.886C289.109 355.648 287.349 354.98 285.919 353.883C284.488 352.786 283.244 351.309 282.188 349.45C281.039 347.94 280.284 346.191 279.922 344.201C279.56 342.211 279.531 340.266 279.834 338.367ZM290.451 343.938C291.193 346.114 292.952 346.624 295.727 345.466C296.357 345.146 297.049 344.698 297.804 344.124C298.559 343.549 299.328 342.706 300.111 341.593C300.61 340.578 300.698 339.597 300.375 338.651C300.052 337.704 299.541 336.98 298.842 336.479C297.033 335.511 295.792 334.508 295.121 333.469C294.512 332.303 294.315 331.261 294.53 330.343C294.091 330.915 293.543 331.63 292.885 332.489C292.227 333.347 291.664 334.331 291.198 335.441C290.606 336.805 290.173 338.168 289.898 339.53C289.718 340.859 289.902 342.329 290.451 343.938ZM417.775 269.603C420.715 273.883 423.437 278.766 425.941 284.251C428.414 289.641 430.604 295.286 432.511 301.187C433.645 305.132 434.651 308.856 435.53 312.36C436.376 315.77 436.796 319.325 436.79 323.025C436.672 324.227 436.315 325.194 435.719 325.926C435.218 326.625 434.589 327.104 433.832 327.362C432.317 327.878 431.034 327.524 429.982 326.298C428.992 324.945 428.158 323.274 427.48 321.287C427.028 319.962 426.64 318.668 426.315 317.405C426.085 316.11 425.886 314.91 425.721 313.804C425.071 311.279 424.437 308.801 423.819 306.37C423.169 303.845 422.456 301.447 421.681 299.175C420.681 296.241 419.298 292.962 417.533 289.337C415.769 285.713 414.133 282.467 412.627 279.6C410.901 277.019 409.432 274.879 408.218 273.18C406.973 271.386 405.946 269.306 405.139 266.94C403.88 263.248 404.292 261.048 406.374 260.337C407.415 259.982 408.459 260.101 409.507 260.695C410.555 261.289 411.541 262.167 412.466 263.331C413.422 264.273 414.331 265.389 415.193 266.68C416.151 267.938 417.012 268.912 417.775 269.603ZM403.119 303.763C403.799 306.067 404.467 308.956 405.124 312.43C405.781 315.904 406.308 319 406.707 321.716C407.066 323.39 407.076 324.813 406.737 325.985C406.365 327.063 405.2 327.83 403.242 328.287C401.853 328.549 400.807 328.272 400.106 327.455C399.467 326.51 399.001 325.454 398.708 324.286C398.385 323.34 398.029 322.141 397.639 320.689C397.25 319.237 396.924 317.816 396.661 316.426C396.271 314.974 395.851 313.586 395.399 312.261C395.041 310.903 394.765 309.783 394.569 308.899C393.852 305.868 392.872 303.613 391.628 302.136C390.352 300.564 388.812 299.61 387.007 299.274C384.694 298.69 381.976 298.93 378.853 299.995C375.824 301.029 372.924 302.282 370.151 303.756C368.009 304.909 366.303 305.174 365.034 304.551C363.732 303.832 363.015 302.968 362.881 301.957C362.459 300.41 362.592 299.097 363.281 298.017C363.936 296.842 365.02 295.839 366.533 295.006C371.415 292.284 375.688 290.562 379.352 289.841C383.109 289.087 386.399 289.128 389.219 289.962C392.956 290.695 395.972 292.413 398.268 295.117C400.531 297.726 402.148 300.608 403.119 303.763ZM491.137 244.421C492.895 247.097 494.59 249.899 496.224 252.829C497.857 255.758 499.38 258.831 500.794 262.047C504.262 260.441 507.574 259.312 510.732 258.657C511.932 258.459 513.528 258.337 515.52 258.292C517.607 258.214 519.522 258.406 521.264 258.868C523.26 259.455 524.723 260.647 525.653 262.443C526.553 264.46 526.436 265.821 525.302 266.525C524.168 267.228 522.591 267.714 520.569 267.981C514.72 268.18 509.286 268.976 504.268 270.371L506.205 276.05C507.339 279.995 508.298 283.736 509.081 287.272C509.927 290.682 510.3 294.252 510.2 297.985C510.082 299.187 509.772 300.138 509.271 300.837C508.864 301.504 508.283 301.967 507.525 302.225C505.822 302.806 504.491 302.468 503.534 301.209C502.639 299.824 501.852 298.138 501.174 296.15C500.722 294.825 500.334 293.531 500.009 292.269C499.778 290.974 499.486 289.806 499.13 288.765C498.48 286.239 497.846 283.761 497.229 281.33C496.579 278.805 495.866 276.407 495.091 274.135C494.091 271.201 492.755 267.906 491.085 264.249C489.383 260.498 487.779 257.188 486.273 254.321C484.515 251.645 482.981 249.474 481.673 247.807C480.365 246.14 479.307 244.124 478.5 241.758C477.241 238.066 477.748 235.833 480.019 235.059C480.871 234.768 481.821 234.92 482.868 235.513C484.011 236.074 485.092 236.921 486.112 238.052C487.099 239.089 488.024 240.252 488.887 241.543C489.812 242.707 490.562 243.666 491.137 244.421ZM479.401 282.498C480.081 284.802 480.75 287.691 481.406 291.165C482.125 294.512 482.764 297.623 483.321 300.496C483.616 301.981 483.563 303.372 483.161 304.672C482.821 305.844 481.672 306.659 479.715 307.115C478.42 307.345 477.406 307.005 476.672 306.093C475.906 305.086 475.409 304.093 475.181 303.115C474.826 302.074 474.453 300.827 474.064 299.375C473.674 297.923 473.348 296.502 473.085 295.113C472.663 293.566 472.29 292.161 471.965 290.899C471.608 289.541 471.331 288.421 471.135 287.537C470.418 284.506 469.391 282.268 468.052 280.822C466.809 279.345 465.268 278.391 463.431 277.961C461.054 277.187 458.32 277.38 455.229 278.54C452.2 279.573 449.252 280.843 446.385 282.349C444.497 283.627 442.87 283.97 441.506 283.379C440.11 282.693 439.329 281.797 439.163 280.692C438.709 279.05 438.89 277.721 439.705 276.703C440.488 275.591 441.54 274.651 442.863 273.883C447.808 271.034 452.129 269.296 455.824 268.669C459.487 267.948 462.792 267.878 465.737 268.458C469.443 269.412 472.381 271.21 474.55 273.851C476.781 276.366 478.398 279.248 479.401 282.498ZM644.933 249.809C646.022 251.762 646.243 253.958 645.596 256.398C645.011 258.71 644.3 261.119 643.464 263.623C642.653 265.273 641.781 267.208 640.848 269.428C639.882 271.553 639.232 273.519 638.897 275.324C638.4 276.655 638.781 276.842 640.039 275.885C641.676 274.798 643.124 273.776 644.382 272.819C645.735 271.829 647.04 270.855 648.299 269.898C649.652 268.908 650.988 267.871 652.309 266.787C653.597 265.607 654.994 264.127 656.5 262.346C657.001 261.647 657.584 261.342 658.248 261.432C658.881 261.428 659.451 261.55 659.959 261.8C661.45 262.454 662.233 263.666 662.308 265.436C662.253 266.512 661.818 267.716 661.005 269.05C660.319 270.446 659.491 271.891 658.521 273.384C656.483 275.77 654.063 277.969 651.262 279.981C648.557 281.96 645.785 283.593 642.948 284.877C640.143 286.257 637.476 286.955 634.946 286.973C632.416 286.99 630.541 285.675 629.321 283.027C628.295 280.947 627.98 278.941 628.378 277.01C628.367 275.429 628.718 273.671 629.432 271.737C630.114 269.708 630.828 267.774 631.574 265.935C632.288 264.001 633.05 262.209 633.861 260.559C634.766 258.876 635.372 257.402 635.68 256.135C635.929 255.627 635.942 255.2 635.718 254.854C635.494 254.507 635.003 254.305 634.244 254.247C633.041 254.129 631.603 254.25 629.929 254.609C628.224 254.874 626.455 255.266 624.625 255.785C622.732 256.43 620.95 257.091 619.278 257.767C617.67 258.316 616.297 258.784 615.161 259.171C612.701 260.011 610.956 259.232 609.927 256.836C609.538 255.384 609.735 254.26 610.52 253.464C611.305 252.668 612.186 251.998 613.163 251.453C614.77 250.588 617.118 249.576 620.209 248.416C623.3 247.256 626.536 246.363 629.915 245.739C633.297 245.431 636.364 245.441 639.118 245.77C641.871 246.098 643.81 247.445 644.933 249.809ZM576.38 207.737C576.365 205.524 576.462 203.641 576.673 202.09C576.978 200.507 578.251 199.439 580.493 198.885C582.545 198.397 584.066 198.829 585.056 200.182C586.013 201.44 586.501 203.334 586.518 205.864C586.566 208.172 586.615 210.638 586.665 213.263C586.682 215.793 586.59 218.465 586.389 221.281C588.604 221.582 590.916 222.009 593.323 222.561C595.698 223.019 598.138 223.666 600.642 224.502C602.956 225.403 605.162 226.447 607.257 227.634C609.415 228.695 611.241 229.868 612.737 231.154C614.299 232.946 614.976 234.775 614.767 236.642C614.688 238.888 613.937 240.095 612.516 240.263C611.061 240.336 609.461 239.826 607.714 238.731C604.128 236.89 600.511 235.271 596.865 233.873C593.218 232.476 589.478 231.269 585.645 230.252C585.011 234.589 584.107 238.753 582.933 242.746C581.822 246.612 580.359 250.069 578.547 253.118C577.701 254.357 576.695 255.123 575.527 255.416C574.359 255.708 573.28 255.178 572.29 253.825C571.778 252.943 571.471 252.044 571.37 251.128C571.236 250.117 571.43 248.36 571.95 245.859C572.877 242.69 573.631 239.791 574.214 237.162C574.764 234.439 575.187 231.653 575.484 228.805C575.842 225.83 576.058 222.745 576.131 219.55C576.265 216.229 576.349 212.291 576.38 207.737ZM619.347 185.949C623.05 190.92 626.332 196.669 629.191 203.195C630.233 202.84 631.321 202.468 632.457 202.081C633.687 201.661 634.808 201.385 635.819 201.251C636.892 200.991 638.409 200.79 640.368 200.65C642.423 200.478 644.369 200.606 646.206 201.036C648.234 201.718 649.697 202.909 650.595 204.611C651.527 206.723 651.442 208.178 650.341 208.977C649.207 209.68 647.613 210.118 645.559 210.291C641.069 210.449 636.724 210.874 632.523 211.567L633.588 214.691C634.626 218.352 635.504 221.856 636.223 225.203C637.004 228.423 637.249 231.774 636.957 235.254C636.813 237.311 635.89 238.63 634.186 239.211C632.388 239.824 631.026 239.549 630.101 238.385C629.143 237.127 628.358 235.599 627.745 233.801C627.293 232.475 626.953 231.324 626.724 230.345C626.559 229.239 626.329 228.102 626.037 226.934C625.451 224.598 624.882 222.309 624.328 220.068C623.775 217.827 623.127 215.618 622.385 213.441C621.416 210.601 620.114 207.559 618.479 204.313C616.938 201.035 615.463 198.104 614.054 195.521C612.328 192.94 610.827 190.863 609.551 189.291C608.37 187.686 607.44 185.89 606.762 183.903C605.6 180.495 606.108 178.42 608.284 177.678C609.325 177.323 610.354 177.395 611.369 177.894C612.479 178.36 613.528 179.112 614.516 180.149C615.376 181.123 616.222 182.208 617.052 183.404C617.945 184.473 618.71 185.321 619.347 185.949ZM711.694 169.348C713.452 172.023 715.1 174.842 716.639 177.804C718.178 180.766 719.654 183.855 721.068 187.071C724.535 185.465 727.942 184.303 731.289 183.584C732.268 183.356 733.753 183.219 735.745 183.173C737.832 183.096 739.747 183.288 741.489 183.75C743.675 184.272 745.232 185.432 746.162 187.228C747.062 189.245 746.897 190.622 745.669 191.358C744.441 192.094 742.91 192.563 741.078 192.766C735.039 193.029 729.511 193.858 724.493 195.253L726.43 200.932C727.564 204.877 728.57 208.601 729.448 212.105C730.294 215.515 730.715 219.07 730.709 222.77C730.591 223.972 730.234 224.939 729.638 225.671C729.137 226.37 728.508 226.849 727.751 227.107C726.236 227.623 724.953 227.269 723.901 226.043C722.911 224.69 722.077 223.02 721.399 221.032C720.947 219.707 720.559 218.413 720.234 217.15C720.003 215.855 719.805 214.655 719.639 213.549C718.989 211.024 718.355 208.546 717.738 206.115C717.088 203.59 716.375 201.192 715.6 198.92C714.6 195.986 713.217 192.707 711.452 189.082C709.688 185.458 708.052 182.212 706.546 179.345C704.82 176.764 703.351 174.624 702.137 172.925C700.891 171.131 699.865 169.051 699.058 166.685C697.799 162.993 698.21 160.793 700.293 160.082C701.334 159.727 702.378 159.847 703.426 160.44C704.474 161.034 705.46 161.912 706.385 163.076C707.34 164.018 708.249 165.134 709.112 166.425C710.07 167.683 710.93 168.657 711.694 169.348ZM665.306 203.872C665.697 200.991 666.658 198.234 668.189 195.598C669.688 192.868 671.46 190.784 673.506 189.347C674.732 188.295 675.93 187.781 677.1 187.804C678.365 187.795 679.397 188.341 680.195 189.443C680.675 190.23 681.013 191.066 681.209 191.95C681.404 192.834 681.345 193.435 681.031 193.753C681.913 193.241 682.972 193.092 684.206 193.304C685.409 193.423 686.756 193.808 688.247 194.462C689.516 195.086 690.708 195.947 691.822 197.046C692.904 198.051 693.797 199.12 694.501 200.253C695.362 201.227 695.829 202.442 695.902 203.896C695.975 205.35 695.827 206.774 695.457 208.168C695.055 209.467 694.448 210.784 693.635 212.118C692.822 213.452 691.928 214.549 690.954 215.41C688.595 217.165 686.185 218.621 683.727 219.777C681.331 220.805 678.946 221.249 676.573 221.107C674.549 221.058 672.806 220.438 671.343 219.246C669.847 217.96 668.62 216.53 667.66 214.955C666.447 213.256 665.659 211.412 665.297 209.422C664.936 207.432 664.938 205.582 665.306 203.872ZM675.826 209.159C676.633 211.525 678.424 212.129 681.199 210.971C681.829 210.651 682.522 210.203 683.277 209.629C684.032 209.054 684.768 208.116 685.487 206.815C685.985 205.799 686.09 204.865 685.799 204.014C685.508 203.162 685.014 202.485 684.314 201.984C682.441 200.827 681.184 199.777 680.545 198.832C679.968 197.761 679.755 196.672 679.906 195.564C679.467 196.136 678.935 196.899 678.309 197.852C677.683 198.805 677.137 199.837 676.67 200.947C676.014 202.121 675.565 203.437 675.322 204.893C675.174 206.317 675.342 207.739 675.826 209.159ZM797.046 140.393C798.709 143.101 800.31 145.936 801.848 148.898C803.482 151.827 805.005 154.9 806.419 158.116C809.854 156.416 813.214 155.27 816.499 154.678C817.572 154.417 819.121 154.312 821.145 154.361C823.232 154.283 825.178 154.412 826.983 154.747C828.979 155.334 830.458 156.573 831.42 158.463C832.287 160.386 832.154 161.7 831.02 162.403C829.887 163.107 828.293 163.545 826.239 163.717C820.422 164.011 814.941 164.824 809.796 166.156L811.781 171.977C812.915 175.922 813.874 179.663 814.658 183.199C815.504 186.609 815.971 190.147 816.06 193.815C815.942 195.017 815.632 195.968 815.131 196.668C814.598 197.272 813.905 197.72 813.054 198.01C811.539 198.527 810.303 198.156 809.346 196.898C808.388 195.639 807.571 194.016 806.893 192.029C806.441 190.704 806.052 189.41 805.727 188.147C805.497 186.852 805.251 185.668 804.991 184.595C804.373 182.164 803.739 179.686 803.089 177.161C802.439 174.635 801.727 172.237 800.952 169.965C799.951 167.031 798.568 163.752 796.804 160.128C795.134 156.471 793.546 153.209 792.039 150.342C790.219 147.793 788.655 145.685 787.347 144.018C786.101 142.224 785.074 140.144 784.267 137.778C783.008 134.087 783.514 131.854 785.786 131.079C786.732 130.756 787.698 130.955 788.684 131.676C789.731 132.269 790.749 133.084 791.737 134.121C792.787 135.031 793.743 136.131 794.606 137.422C795.563 138.68 796.377 139.67 797.046 140.393ZM754.515 183.903C753.805 181.821 753.074 179.059 752.323 175.617C751.634 172.049 751.153 168.937 750.882 166.282C750.49 164.514 750.48 163.091 750.852 162.014C751.286 160.809 752.388 160.011 754.156 159.619C755.64 159.324 756.749 159.632 757.483 160.544C758.184 161.362 758.697 162.402 759.022 163.664C759.345 164.611 759.702 165.81 760.091 167.262C760.481 168.714 760.854 170.118 761.212 171.476C761.474 172.865 761.8 174.286 762.19 175.738C762.547 177.095 762.808 178.169 762.971 178.958C763.72 182.084 764.717 184.385 765.96 185.863C767.299 187.308 768.792 188.278 770.44 188.773C772.942 189.293 775.66 189.053 778.594 188.052C781.59 186.924 784.522 185.607 787.389 184.101C789.564 183.042 791.302 182.872 792.603 183.59C793.873 184.214 794.574 185.031 794.708 186.042C795.097 187.494 794.964 188.807 794.308 189.982C793.62 191.062 792.52 192.018 791.008 192.851C786.252 195.636 781.995 197.405 778.237 198.158C774.447 198.817 771.142 198.729 768.321 197.895C764.679 197.13 761.726 195.443 759.463 192.834C757.167 190.13 755.518 187.153 754.515 183.903ZM842.376 155.519C846.132 154.449 850.25 153.203 854.731 151.78C859.179 150.263 863.706 148.666 868.311 146.989C872.917 145.313 877.38 143.685 881.701 142.105C886.085 140.398 890.138 138.805 893.859 137.324C894.711 137.034 895.61 136.727 896.556 136.404C897.503 136.081 898.324 135.854 899.018 135.723C899.745 135.686 900.459 135.918 901.158 136.419C901.919 136.794 902.478 137.501 902.833 138.542C903.285 139.867 903.103 141.039 902.288 142.056C901.568 143.042 900.609 143.95 899.413 144.78C897.491 145.647 895.284 146.611 892.793 147.672C890.364 148.606 887.794 149.589 885.081 150.62C882.464 151.618 879.893 152.601 877.37 153.567C874.847 154.533 872.639 155.339 870.746 155.985C867.371 157.242 863.49 158.565 859.104 159.956C854.718 161.346 850.615 162.482 846.795 163.362C845.027 163.754 843.416 163.987 841.961 164.06C840.57 164.006 839.535 162.986 838.857 160.998C838.181 159.327 838.205 158.157 838.927 157.488C839.65 156.818 840.8 156.162 842.376 155.519ZM873.885 170.763C874.089 172.912 874.389 175.029 874.783 177.113C875.145 179.103 875.647 180.886 876.291 182.463C876.934 184.039 877.765 185.235 878.782 186.05C879.8 186.865 881.068 187.331 882.587 187.447C884.957 187.272 887.813 186.351 891.153 184.683C894.494 183.016 897.704 180.811 900.784 178.07C901.631 177.147 902.593 176.714 903.669 176.769C904.806 176.698 905.712 177.34 906.386 178.695C906.962 179.766 907.034 180.904 906.599 182.109C906.227 183.187 905.603 184.298 904.725 185.443C903.254 187.635 901.133 189.626 898.363 191.416C895.625 193.301 892.742 194.76 889.713 195.793C886.59 196.859 883.494 197.386 880.427 197.376C877.391 197.46 874.776 196.609 872.582 194.822C869.372 192.536 867.135 189.231 865.872 184.907C864.608 180.583 863.945 176.161 863.882 171.639C863.935 170.247 864.403 169.295 865.285 168.783C866.135 168.176 867.207 167.758 868.502 167.527C869.892 167.265 871.063 167.446 872.016 168.072C873.064 168.666 873.687 169.563 873.885 170.763ZM834.575 125.214C833.706 122.975 832.899 120.609 832.154 118.116C831.409 115.623 830.695 112.908 830.01 109.972C829.715 108.488 829.627 107.144 829.745 105.942C829.958 104.707 831.01 103.767 832.903 103.121C834.198 102.891 835.449 103.151 836.656 103.901C837.831 104.557 838.548 105.422 838.809 106.495C839.394 108.831 839.98 111.168 840.565 113.504C841.213 115.713 841.828 117.669 842.409 119.373C843.347 122.434 844.533 124.671 845.966 126.084C847.461 127.37 849.048 128.149 850.726 128.422C851.928 128.54 853.681 128.259 855.985 127.579C858.351 126.772 860.78 125.838 863.271 124.777C865.888 123.779 868.363 122.67 870.695 121.452C872.994 120.14 874.853 119.083 876.27 118.283C878.286 117.067 880.006 116.691 881.433 117.156C882.827 117.526 883.59 118.216 883.724 119.227C884.367 120.804 884.314 122.196 883.563 123.402C882.781 124.515 881.838 125.47 880.737 126.268C878.345 127.929 875.621 129.545 872.565 131.116C869.571 132.56 866.654 133.766 863.814 134.735C860.818 135.863 858.057 136.751 855.532 137.402C852.974 137.957 850.904 138.082 849.32 137.777C845.586 137.36 842.525 135.974 840.136 133.619C837.716 131.169 835.862 128.368 834.575 125.214ZM1004.77 67.7952C1007.74 72.1702 1010.53 77.084 1013.13 82.5368C1015.69 87.8949 1017.88 93.3821 1019.69 98.9985C1020.83 102.944 1021.8 106.732 1022.62 110.363C1023.43 113.994 1023.84 117.659 1023.83 121.359C1023.68 122.467 1023.34 123.323 1022.81 123.928C1022.37 124.5 1021.72 124.931 1020.87 125.222C1019.26 125.771 1018 125.463 1017.07 124.3C1016.21 123.009 1015.44 121.37 1014.76 119.383C1014.31 118.058 1013.92 116.764 1013.59 115.501C1013.36 114.206 1013.13 113.069 1012.91 112.091C1012.19 109.376 1011.49 106.867 1010.81 104.563C1010.2 102.132 1009.47 99.6864 1008.63 97.2256C1008.47 96.7524 1008.31 96.2792 1008.14 95.806C1007.95 95.2381 1007.69 94.639 1007.37 94.0088C1004.72 95.229 1002.09 96.4964 999.477 97.8112C996.862 99.126 994.579 100.486 992.628 101.891C991.085 102.945 989.603 103.556 988.182 103.725C986.727 103.798 985.756 102.809 985.267 100.756C984.873 98.672 985.398 96.8026 986.841 95.1481C987.843 93.7497 989.163 92.5071 990.8 91.4205C992.499 90.207 993.837 89.328 994.813 88.7836C995.884 88.2069 997.177 87.6603 998.691 87.1438C1000.21 86.6272 1001.91 86.0461 1003.8 85.4005C1003.16 84.14 1002.5 82.8322 1001.83 81.4771C1001.16 80.122 1000.53 78.9088 999.955 77.8376C998.132 74.9726 996.567 72.7066 995.259 71.0397C993.918 69.2781 992.877 67.3089 992.134 65.1321C990.875 61.4409 991.381 59.2079 993.653 58.4331C994.505 58.1425 995.454 58.294 996.502 58.8876C997.55 59.4811 998.647 60.3747 999.794 61.5684C1000.75 62.5105 1001.66 63.6268 1002.52 64.9173C1003.48 66.1756 1004.23 67.1349 1004.77 67.7952ZM959.684 91.7323C959.639 89.7404 959.768 87.9527 960.074 86.3694C960.347 84.6915 961.556 83.592 963.703 83.0711C965.945 82.5178 967.513 82.9338 968.408 84.319C969.365 85.5773 969.9 87.4552 970.013 89.9526C969.933 92.1985 969.871 94.6497 969.827 97.3064C969.877 99.9308 969.864 102.682 969.789 105.56C971.878 105.799 974.142 106.242 976.582 106.889C979.084 107.409 981.555 107.992 983.994 108.64C986.182 109.478 988.371 110.475 990.561 111.63C992.719 112.69 994.546 114.021 996.044 115.623C997.636 117.193 998.328 118.912 998.12 120.779C997.946 123.058 997.132 124.233 995.677 124.307C994.318 124.348 992.734 123.884 990.924 122.917C987.465 121.138 983.928 119.598 980.314 118.295C976.668 116.897 972.848 115.611 968.855 114.437C968.411 118.71 967.618 122.889 966.476 126.977C965.397 130.937 963.871 134.363 961.899 137.255C961.116 138.367 960.093 139.086 958.831 139.411C957.568 139.736 956.489 139.206 955.594 137.821C955.146 137.128 954.856 136.276 954.722 135.265C954.557 134.159 954.766 132.45 955.351 130.138C956.245 126.874 956.983 123.928 957.566 121.299C958.116 118.576 958.571 115.727 958.929 112.751C959.163 110.03 959.348 107.009 959.483 103.687C959.68 100.239 959.747 96.254 959.684 91.7323ZM1023.08 61.5484C1026.06 65.9233 1028.84 70.8372 1031.44 76.2899C1034.01 81.648 1036.2 87.1353 1038.01 92.7517C1039.14 96.6967 1040.12 100.485 1040.93 104.116C1041.84 107.714 1042.25 111.38 1042.15 115.112C1042 116.22 1041.66 117.076 1041.12 117.681C1040.68 118.253 1040.09 118.668 1039.33 118.927C1037.62 119.508 1036.31 119.217 1035.38 118.053C1034.52 116.762 1033.75 115.123 1033.07 113.136C1032.62 111.811 1032.23 110.517 1031.91 109.254C1031.58 107.992 1031.31 106.871 1031.08 105.892C1030.36 103.177 1029.71 100.652 1029.13 98.3161C1028.51 95.8853 1027.78 93.4396 1026.94 90.9788C1025.97 88.1395 1024.65 84.8914 1022.98 81.2347C1021.31 77.578 1019.74 74.3634 1018.27 71.5908C1016.45 68.7258 1014.88 66.4598 1013.57 64.7929C1012.23 63.0313 1011.19 61.0621 1010.45 58.8852C1009.19 55.194 1009.7 52.9611 1011.97 52.1863C1012.82 51.8957 1013.77 52.0472 1014.82 52.6407C1015.96 53.202 1017.06 54.0956 1018.11 55.3216C1019.06 56.2637 1019.97 57.38 1020.83 58.6705C1021.7 59.9611 1022.45 60.9203 1023.08 61.5484ZM1112.29 31.1216C1115.26 35.4965 1118 40.4265 1120.5 45.9115C1122.97 51.3019 1125.12 56.8053 1126.93 62.4217C1128.06 66.3667 1129.08 70.1386 1129.99 73.7373C1130.9 77.3361 1131.36 80.9854 1131.35 84.6854C1131.2 85.7933 1130.81 86.6657 1130.18 87.3025C1129.65 87.9071 1129.05 88.3224 1128.39 88.5484C1126.78 89.0972 1125.47 88.8059 1124.45 87.6746C1123.49 86.4163 1122.67 84.7934 1121.99 82.8058C1121.54 81.4808 1121.15 80.1869 1120.83 78.9243C1120.6 77.6293 1120.37 76.4925 1120.14 75.5137C1120.01 74.8189 1119.83 74.1403 1119.6 73.4777C1119.47 72.7829 1119.31 72.1516 1119.12 71.5837C1116.05 72.2059 1112.88 73.1293 1109.6 74.3539C1106.38 75.4515 1103.13 76.7707 1099.86 78.3115C1098.03 79.1465 1096.32 79.5694 1094.74 79.5805C1093.13 79.4968 1092.3 78.459 1092.25 76.4671C1092.31 75.3915 1092.57 74.4568 1093.04 73.6629C1093.57 72.7421 1094.28 71.8676 1095.16 71.0392C1096.63 69.7956 1098.43 68.7079 1100.54 67.7761C1102.62 66.7496 1104.29 66.0739 1105.56 65.7488C1107.1 65.3269 1108.87 64.9351 1110.86 64.5734C1112.94 64.1794 1115.06 63.88 1117.21 63.6753L1116.14 60.552C1115.69 59.227 1115.15 57.7761 1114.5 56.1994C1113.86 54.6227 1113.14 53.1256 1112.34 51.7081C1106.27 52.8256 1100.03 54.9563 1093.6 58.1003C1091.96 58.8706 1090.38 59.1979 1088.86 59.082C1087.44 58.9338 1086.65 57.7217 1086.51 55.4458C1086.72 53.5786 1087.54 51.8177 1088.99 50.1633C1090.28 48.9842 1091.83 47.9772 1093.66 47.1422C1095.46 46.2126 1096.94 45.6015 1098.11 45.3087C1099.65 44.8868 1101.33 44.5273 1103.13 44.2301C1105.02 43.9007 1106.83 43.7616 1108.53 43.813C1108.25 43.2774 1107.99 42.8364 1107.77 42.4901C1107.6 42.0169 1107.41 41.6071 1107.19 41.2608C1105.36 38.3958 1103.85 36.1137 1102.63 34.4145C1101.39 32.6206 1100.39 30.6352 1099.65 28.4584C1098.39 24.7672 1098.8 22.5665 1100.89 21.8563C1101.93 21.5012 1102.97 21.6204 1104.02 22.2139C1105.07 22.8075 1106.07 23.7334 1107.03 24.9916C1107.98 25.9337 1108.89 27.05 1109.75 28.3405C1110.71 29.5988 1111.56 30.5258 1112.29 31.1216ZM1130.6 24.8747C1133.57 29.2497 1136.31 34.1797 1138.82 39.6647C1141.29 45.0551 1143.43 50.5585 1145.24 56.1749C1146.37 60.1199 1147.4 63.8918 1148.31 67.4905C1149.22 71.0892 1149.67 74.7386 1149.66 78.4386C1149.51 79.5465 1149.12 80.4188 1148.5 81.0557C1147.96 81.6603 1147.32 82.0917 1146.56 82.3499C1145.05 82.8665 1143.78 82.5591 1142.76 81.4277C1141.8 80.1695 1140.98 78.5466 1140.31 76.559C1139.85 75.234 1139.47 73.9401 1139.14 72.6774C1138.91 71.3825 1138.73 70.2295 1138.59 69.2185C1137.88 66.5038 1137.23 63.9785 1136.64 61.6424C1136.03 59.2117 1135.3 56.766 1134.46 54.3052C1133.49 51.4658 1132.12 48.2339 1130.36 44.6095C1128.59 40.9851 1126.98 37.7866 1125.5 35.014C1123.68 32.149 1122.16 29.8668 1120.95 28.1676C1119.7 26.3738 1118.71 24.3884 1117.96 22.2116C1116.71 18.5204 1117.12 16.3197 1119.2 15.6095C1120.24 15.2543 1121.29 15.3736 1122.33 15.9671C1123.38 16.5606 1124.38 17.4865 1125.34 18.7448C1126.3 19.6869 1127.25 20.787 1128.21 22.0453C1129.17 23.3035 1129.96 24.2467 1130.6 24.8747ZM1085.84 67.8786C1086.52 70.1824 1087.17 73.0239 1087.79 76.4033C1088.42 79.7827 1088.96 82.9254 1089.43 85.8316C1089.72 87.3158 1089.71 88.6915 1089.41 89.9586C1089.07 91.131 1087.92 91.9454 1085.96 92.4018C1084.57 92.6645 1083.51 92.3398 1082.78 91.4278C1082.1 90.3889 1081.65 89.3801 1081.43 88.4014C1081.07 87.3603 1080.72 86.1611 1080.36 84.8038C1079.97 83.3518 1079.64 81.931 1079.38 80.5414C1078.93 78.9001 1078.49 77.4643 1078.07 76.2339C1077.71 74.8766 1077.42 73.7086 1077.19 72.7298C1076.44 69.6043 1075.35 67.335 1073.92 65.922C1072.55 64.382 1070.85 63.4293 1068.82 63.0639C1066.57 62.6685 1063.98 62.9712 1061.05 63.972C1058.21 64.9405 1055.45 66.1456 1052.77 67.5873C1050.63 68.7407 1048.94 69.0529 1047.7 68.5239C1046.43 67.9003 1045.72 67.0356 1045.55 65.93C1045.1 64.2887 1045.23 62.9754 1045.95 61.9901C1046.64 60.9101 1047.74 59.9537 1049.25 59.1209C1053.63 56.7819 1057.52 55.1894 1060.93 54.3434C1064.34 53.4974 1067.47 53.2226 1070.32 53.519C1074.5 53.9958 1077.86 55.6484 1080.41 58.4768C1082.93 61.2105 1084.74 64.3444 1085.84 67.8786Z" fill="#E496FF"/>
</svg>
